<svg width="27" height="25" viewBox="0 0 27 25" fill="none" xmlns="http://www.w3.org/2000/svg">
<path d="M18.5308 0C19.3456 -0.017348 19.8798 0.514632 19.9028 1.46289C19.9143 1.90237 20.0459 2.04759 20.4819 2.03027C21.2566 2.00136 22.0315 2.01285 22.8062 2.02441C25.0731 2.0649 26.8299 3.73601 26.8472 6.00879C26.8816 11.0114 26.8873 16.0199 26.8472 21.0225C26.8299 23.2836 25.0333 24.9843 22.7837 24.9902C19.6617 25.0076 16.5395 24.9951 13.4175 24.9951C10.3587 24.9951 7.29955 25.0009 4.24072 24.9951C1.73853 24.9893 0.0102352 23.2607 0.00439453 20.7393C-0.00134461 15.9275 -0.00134461 11.1096 0.00439453 6.29785C0.00449862 3.75916 1.7036 2.04185 4.21143 2.02441C4.92296 2.01863 5.64039 1.9956 6.34619 2.03027C6.81674 2.0534 6.95468 1.9028 6.96045 1.42871C6.97193 0.526513 7.51208 0 8.29834 0C9.07862 0.00599926 9.63513 0.561539 9.62939 1.44043C9.62373 1.93173 9.7845 2.03606 10.2378 2.03027C12.3726 2.00714 14.5131 2.00714 16.6479 2.03027C17.0726 2.03606 17.228 1.93149 17.228 1.47461C17.2281 0.578304 17.756 0.0173493 18.5308 0ZM18.7905 12.4434C17.9539 11.6277 16.8283 11.6922 15.9194 12.6201C14.8334 13.7243 13.7304 14.8204 12.7007 15.9727C12.2022 16.5243 11.9047 16.5324 11.4224 15.9648C10.8995 15.3568 10.3763 14.6686 9.59619 14.6924C8.64691 14.6844 8.06711 15.0367 7.72119 15.7168C7.3354 16.4766 7.46399 17.2044 8.03467 17.8203C8.87132 18.7245 9.72466 19.6054 10.5854 20.4775C11.599 21.5015 12.6366 21.5093 13.6421 20.4854C15.3395 18.749 17.0213 17.0045 18.7026 15.2441C19.5713 14.332 19.5949 13.2275 18.7905 12.4434ZM10.4097 4.69043C9.86465 4.68466 9.58894 4.73667 9.61182 5.40723C9.64051 6.17629 9.00973 6.72541 8.29248 6.72559C7.56361 6.73137 7.02334 6.19962 6.94873 5.41309C6.93727 5.30904 6.93238 5.19876 6.94385 5.09473C6.97237 4.80013 6.85138 4.69051 6.54736 4.69629C5.68652 4.71364 4.83106 4.67917 3.97021 4.71387C3.23007 4.74294 2.73621 5.27458 2.70752 6.02051C2.69031 6.50617 2.7369 6.99187 2.69678 7.47754C2.65086 8.00382 2.86301 8.10254 3.33936 8.10254C6.6967 8.09676 10.0483 8.10254 13.3999 8.10254C16.7917 8.10254 20.1839 8.09683 23.5757 8.1084C23.9945 8.10837 24.1892 8.01532 24.1548 7.55273C24.1204 7.09019 24.1555 6.62751 24.144 6.15918C24.1268 5.22821 23.6329 4.7313 22.6919 4.71387C21.9401 4.7023 21.182 4.73685 20.4302 4.70215C20.0171 4.68486 19.9084 4.82376 19.897 5.22852C19.8739 6.17678 19.3453 6.73723 18.5591 6.73145C17.7731 6.73126 17.2223 6.14768 17.2222 5.22266C17.2222 4.80047 17.0956 4.69629 16.6938 4.69629C14.5992 4.71364 12.5043 4.72513 10.4097 4.69043Z" fill="url(#paint0_linear_76_806)"/>
<defs>
<linearGradient id="paint0_linear_76_806" x1="13.4375" y1="0" x2="13.4375" y2="24.9993" gradientUnits="userSpaceOnUse">
<stop stop-color="#FF4E71"/>
<stop offset="1" stop-color="#FB0230"/>
</linearGradient>
</defs>
</svg>
