<svg width="28" height="25" viewBox="0 0 28 25" fill="none" xmlns="http://www.w3.org/2000/svg">
<path d="M14 22.4975H16.5114V5.96596L25.069 9.65017C25.1517 9.726 25.4823 10.2632 25.4823 10.3074V22.4975H26.7411C27.4342 22.4975 28 23.0536 28 23.7488C28 24.4376 27.4405 25 26.7411 25H1.25886C0.565849 25 0 24.4439 0 23.7488C0 23.0599 0.559491 22.4975 1.25886 22.4975H2.51771V5.19499C2.51771 4.92958 3.01362 4.5125 3.24886 4.37347C6.09083 2.70515 9.98183 1.72564 12.9192 0.0762764C13.2498 -0.0943475 14 0.0194018 14 0.436482V22.4975Z" fill="url(#paint0_linear_76_5117)"/>
<defs>
<linearGradient id="paint0_linear_76_5117" x1="14" y1="0" x2="14" y2="25" gradientUnits="userSpaceOnUse">
<stop stop-color="#FF4E71"/>
<stop offset="1" stop-color="#FB0230"/>
</linearGradient>
</defs>
</svg>
