<svg width="25" height="25" viewBox="0 0 25 25" fill="none" xmlns="http://www.w3.org/2000/svg">
<path d="M5.8004 11.5608C4.37394 11.6404 3.0766 11.3524 1.87148 10.6478C1.25048 10.2923 0.82623 9.79601 0.592585 9.14034C-0.200576 6.89148 -0.200576 4.64261 0.611031 2.39987C0.99224 1.33978 1.81 0.75152 2.85525 0.43288C4.68136 -0.124741 6.51363 -0.112485 8.35819 0.322581C9.96296 0.702499 10.9283 1.66455 11.2972 3.27C11.7276 5.13895 11.7091 6.97726 11.1312 8.81557C10.8299 9.78375 10.2396 10.4578 9.32351 10.8929C8.19218 11.426 7.01166 11.6404 5.8004 11.5608Z" fill="url(#paint0_linear_76_5124)"/>
<path d="M5.72044 24.9805C4.48458 25.0847 3.23643 24.766 2.04361 24.1594C1.32423 23.7917 0.83235 23.2525 0.574111 22.4988C-0.194456 20.2928 -0.188308 18.0807 0.58026 15.8747C0.949172 14.8146 1.73004 14.1712 2.77529 13.8526C4.8166 13.2398 6.86407 13.2521 8.89309 13.8894C10.0183 14.2448 10.7622 14.9862 11.125 16.1198C11.7829 18.1971 11.7706 20.2622 11.0943 22.3272C10.8053 23.2157 10.2519 23.8469 9.39112 24.2513C8.24134 24.7905 7.42358 24.9866 5.72044 24.9805Z" fill="url(#paint1_linear_76_5124)"/>
<path d="M19.1919 24.9744C17.8085 25.0847 16.548 24.7415 15.3429 24.1042C14.7158 23.7672 14.2731 23.2892 14.0271 22.6275C13.1725 20.348 13.1725 18.0562 14.021 15.7767C14.3592 14.8698 15.0171 14.257 15.9209 13.9506C18.1159 13.1969 20.3232 13.2214 22.5121 13.9751C23.4836 14.3122 24.1415 14.9923 24.4735 15.985C25.1744 18.093 25.1683 20.2009 24.4981 22.3149C24.203 23.2341 23.625 23.8714 22.7458 24.2758C21.6083 24.7967 20.4339 25.0724 19.1919 24.9744Z" fill="url(#paint2_linear_76_5124)"/>
<path d="M19.1304 11.5669C17.7716 11.6466 16.4558 11.3586 15.2323 10.6355C14.6543 10.2985 14.2546 9.83281 14.0271 9.22004C13.1725 6.88538 13.2032 4.55686 14.1009 2.24059C14.4821 1.2479 15.2814 0.720917 16.2529 0.432915C18.2758 -0.173727 20.2925 -0.136961 22.3092 0.506447C23.4713 0.880237 24.2091 1.6462 24.5534 2.80433C25.1499 4.80196 25.1437 6.78734 24.5473 8.78497C24.2522 9.77766 23.6435 10.4701 22.6966 10.9113C21.6882 11.3709 20.8213 11.5608 19.1304 11.5669Z" fill="url(#paint3_linear_76_5124)"/>
<defs>
<linearGradient id="paint0_linear_76_5124" x1="12.5" y1="0" x2="12.5" y2="25" gradientUnits="userSpaceOnUse">
<stop stop-color="#FF4E71"/>
<stop offset="1" stop-color="#FB0230"/>
</linearGradient>
<linearGradient id="paint1_linear_76_5124" x1="12.5" y1="0" x2="12.5" y2="25" gradientUnits="userSpaceOnUse">
<stop stop-color="#FF4E71"/>
<stop offset="1" stop-color="#FB0230"/>
</linearGradient>
<linearGradient id="paint2_linear_76_5124" x1="12.5" y1="0" x2="12.5" y2="25" gradientUnits="userSpaceOnUse">
<stop stop-color="#FF4E71"/>
<stop offset="1" stop-color="#FB0230"/>
</linearGradient>
<linearGradient id="paint3_linear_76_5124" x1="12.5" y1="0" x2="12.5" y2="25" gradientUnits="userSpaceOnUse">
<stop stop-color="#FF4E71"/>
<stop offset="1" stop-color="#FB0230"/>
</linearGradient>
</defs>
</svg>
