<svg width="27" height="25" viewBox="0 0 27 25" fill="none" xmlns="http://www.w3.org/2000/svg">
<path d="M26.9755 6.0148C26.9582 3.74206 25.1937 2.06497 22.9159 2.02448C22.1374 2.01292 21.359 2.00135 20.5805 2.03027C20.1422 2.04762 20.0096 1.90304 19.9981 1.46353C19.975 0.520884 19.4387 -0.016942 18.6199 0.000407198C17.8472 0.0177564 17.3109 0.578715 17.3109 1.47509C17.3109 1.93195 17.161 2.03605 16.7343 2.03027C14.5834 2.01292 12.4382 2.01292 10.2931 2.03605C9.83181 2.03605 9.67612 1.93195 9.67612 1.44039C9.68765 0.561365 9.1283 0.00619027 8.3383 0.000407198C7.54829 0.000407198 7.01201 0.53245 6.99471 1.43461C6.98895 1.90882 6.85055 2.05918 6.38347 2.03027C5.66843 1.99557 4.94762 2.0187 4.23258 2.02448C1.71264 2.04183 0.0115329 3.75941 0 6.29818C0 11.1097 0 15.927 0 20.7385C0.00576646 23.2599 1.74147 24.9949 4.25565 24.9949C7.32917 25.0006 10.4027 24.9949 13.4762 24.9949C16.5497 24.9949 19.7501 25.0064 22.8871 24.9949C25.1475 24.9833 26.9467 23.2889 26.9697 21.0219C27.0101 16.0195 27.0101 11.0172 26.9697 6.0148H26.9755ZM18.0086 16.2855L16.9649 17.6214L17.0284 19.3159C17.0687 20.3395 16.0538 21.0797 15.0908 20.7269L13.505 20.1429L11.9193 20.7269C10.9563 21.0797 9.94137 20.3395 9.97597 19.3159L10.0394 17.6214L8.99567 16.2855C8.36713 15.4759 8.75348 14.2846 9.73955 14.0012L11.3657 13.5386L12.3056 12.1333C12.8765 11.2774 14.1278 11.2774 14.7045 12.1333L15.6444 13.5386L17.2705 14.0012C18.2566 14.2846 18.643 15.4759 18.0086 16.2855ZM23.6886 8.11406C20.2806 8.1025 16.8727 8.10828 13.4647 8.10828C10.0567 8.10828 6.72946 8.09671 3.36761 8.11406C2.889 8.11984 2.66987 8.01575 2.72177 7.49527C2.76213 7.00949 2.716 6.52372 2.7333 6.03794C2.75637 5.29192 3.25805 4.75988 4.00192 4.73096C4.86112 4.70205 5.72609 4.73096 6.5853 4.71361C6.89092 4.70783 7.01201 4.81771 6.98318 5.11843C6.97165 5.22252 6.98318 5.32662 6.98895 5.43071C7.06391 6.223 7.61172 6.74926 8.3383 6.74347C9.06487 6.74347 9.69342 6.19408 9.67035 5.42493C9.64728 4.75409 9.91831 4.70205 10.4661 4.70783C12.5709 4.73675 14.6756 4.73096 16.7804 4.71361C17.184 4.70783 17.3109 4.81771 17.3109 5.23409C17.3167 6.15938 17.8645 6.74347 18.6545 6.74347C19.4503 6.74926 19.9808 6.1883 19.9981 5.23987C20.0096 4.83506 20.1192 4.69626 20.5344 4.71361C21.2898 4.74253 22.0509 4.71361 22.8063 4.72518C23.752 4.73675 24.248 5.23409 24.2653 6.16516C24.271 6.62781 24.2364 7.09624 24.2768 7.55889C24.3114 8.02153 24.1096 8.11406 23.6886 8.11406Z" fill="url(#paint0_linear_76_5114)"/>
<defs>
<linearGradient id="paint0_linear_76_5114" x1="13.5" y1="0" x2="13.5" y2="25" gradientUnits="userSpaceOnUse">
<stop stop-color="#FF4E71"/>
<stop offset="1" stop-color="#FB0230"/>
</linearGradient>
</defs>
</svg>
