<svg width="27" height="25" viewBox="0 0 27 25" fill="none" xmlns="http://www.w3.org/2000/svg">
<path d="M13.4924 24.9984C9.66601 24.9984 5.83958 24.9984 2.01314 24.9984C0.573226 24.9984 -0.0734012 24.3151 0.00659403 22.8829C0.0465916 22.1011 0.119921 21.3193 0.326575 20.5572C0.893207 18.4089 2.25313 16.9504 4.32633 16.1291C5.39294 15.7087 6.5062 15.4525 7.6528 15.3211C8.29276 15.2488 8.47275 15.3736 8.63274 15.9912C9.07938 17.765 9.85267 19.3812 10.9726 20.8397C11.1859 21.1156 11.3992 21.4244 11.8259 21.3193C12.2925 21.201 12.3659 20.8265 12.3925 20.4258C12.4192 20.0973 12.4325 19.7688 12.5125 19.4535C12.7058 18.7045 12.5658 18.0344 12.1659 17.3708C11.8659 16.8781 12.0125 16.6876 12.6058 16.681C13.2191 16.6744 13.8258 16.6679 14.4391 16.681C14.9657 16.6941 15.139 16.911 14.8457 17.3183C14.0324 18.4614 14.5724 19.6374 14.6657 20.8068C14.6857 21.0828 14.899 21.2601 15.1723 21.3258C15.5123 21.4047 15.7323 21.2207 15.9256 20.9776C17.0122 19.5914 17.7922 18.0541 18.2655 16.3657C18.3122 16.1883 18.3455 16.0109 18.3988 15.8335C18.5121 15.4459 18.7721 15.2488 19.1788 15.3014C20.7853 15.4919 22.3453 15.8401 23.7585 16.6613C25.7984 17.8504 26.6717 19.7228 26.925 21.95C26.965 22.3113 26.985 22.6792 26.9983 23.0406C27.0383 24.302 26.3717 24.9918 25.0984 24.9918C21.2186 25.0049 17.3522 24.9984 13.4924 24.9984Z" fill="url(#paint0_linear_76_5128)"/>
<path d="M19.5921 6.47153C19.5254 8.31107 19.1655 10.2294 18.1455 11.977C17.3256 13.3829 16.2256 14.4867 14.5791 14.894C12.9192 15.3013 11.4659 14.8349 10.2327 13.718C8.70609 12.3384 7.98613 10.5448 7.61949 8.587C7.3795 7.27305 7.22618 5.94595 7.55282 4.62542C8.29278 1.60332 11.1459 -0.328196 14.2991 0.0462819C17.2922 0.40105 19.5854 2.99612 19.5921 6.0445C19.5921 6.13647 19.5921 6.22845 19.5921 6.47153Z" fill="url(#paint1_linear_76_5128)"/>
<defs>
<linearGradient id="paint0_linear_76_5128" x1="13.5" y1="0" x2="13.5" y2="25" gradientUnits="userSpaceOnUse">
<stop stop-color="#FF4E71"/>
<stop offset="1" stop-color="#FB0230"/>
</linearGradient>
<linearGradient id="paint1_linear_76_5128" x1="13.5" y1="0" x2="13.5" y2="25" gradientUnits="userSpaceOnUse">
<stop stop-color="#FF4E71"/>
<stop offset="1" stop-color="#FB0230"/>
</linearGradient>
</defs>
</svg>
