<svg width="25" height="25" viewBox="0 0 25 25" fill="none" xmlns="http://www.w3.org/2000/svg">
<path d="M12.0705 0.00851593C21.6582 -0.33939 28.0926 10.0415 23.4674 18.5038C19.1131 26.4749 7.97677 27.268 2.50318 20.008C-3.56327 11.955 2.0841 0.366654 12.0705 0.00851593ZM10.757 9.32523C11.0688 7.06896 14.2221 7.28384 13.8286 9.78058C13.6804 10.722 12.4998 10.901 11.8303 11.4792C10.6957 12.4615 9.56621 15.4903 11.7229 15.7001C12.1676 15.741 13.1642 15.7615 13.5219 15.5364C14.1608 15.1373 14.0126 14.4671 14.2425 14.2061C14.3652 14.068 15.4333 13.582 15.786 13.2852C19.9921 9.66802 16.1182 2.61781 10.7008 4.39315C8.69739 5.04804 7.05173 7.18663 7.16417 9.33035H10.757V9.32523ZM12.1727 16.7438C9.72465 17.0815 10.7059 20.9698 13.0875 19.9312C14.7996 19.1843 14.033 16.488 12.1727 16.7438Z" fill="url(#paint0_linear_76_5099)"/>
<defs>
<linearGradient id="paint0_linear_76_5099" x1="12.5" y1="0" x2="12.5" y2="25" gradientUnits="userSpaceOnUse">
<stop stop-color="#FF4E71"/>
<stop offset="1" stop-color="#FB0230"/>
</linearGradient>
</defs>
</svg>
