<svg width="25" height="25" viewBox="0 0 25 25" fill="none" xmlns="http://www.w3.org/2000/svg">
<path d="M3.85047 0.3217C3.76578 0.0112877 4.2231 0 4.432 0C9.68268 0 14.6116 0.00564386 21.0987 0.00564386C23.1481 0.310412 24.7629 1.9302 25 4.0015V23.9751C24.9492 24.9515 24.0346 25.2393 23.2103 24.7935C22.8828 24.6129 22.273 24.1106 21.6576 23.5744C20.6131 22.6657 19.0549 22.6827 18.0217 23.6083C17.6942 23.9017 17.3667 24.1896 17.0336 24.4436C16.5594 24.8048 16.3166 25.0813 15.656 24.9741C15.2778 24.912 14.5494 24.2855 13.8211 23.6139C12.8049 22.677 11.2466 22.6319 10.1908 23.5292C9.35522 24.2347 8.48011 24.9346 8.16958 24.9797C7.58805 25.0644 7.14767 24.8894 6.88796 24.3532L6.82586 4.1313C6.61131 2.42686 5.50472 0.874798 3.85047 0.327344V0.3217ZM20.1558 4.84243C19.9639 4.6449 19.5574 4.51509 19.2864 4.48687C17.937 4.33448 13.7703 4.31191 12.4605 4.49816C10.9925 4.70698 10.9925 6.62025 12.4605 6.82907C13.68 6.99838 18.1685 6.99838 19.3823 6.82907C20.3704 6.68797 20.8841 5.57613 20.1558 4.84807V4.84243ZM12.2572 9.10354C11.0716 9.43089 11.0716 10.966 12.2403 11.3159H19.5969C20.8051 10.9886 20.743 9.2785 19.4896 9.08661C17.378 8.75927 14.4535 9.29543 12.2572 9.10354ZM12.1499 13.692C11.0208 14.1661 11.128 15.6504 12.3475 15.9044C14.5269 15.6843 17.395 16.2261 19.4896 15.9044C20.7543 15.7069 20.7938 13.9911 19.5969 13.6751L12.1499 13.692Z" fill="url(#paint0_linear_76_5105)"/>
<path d="M0.914635 13.6694C0.609757 13.6694 -0.0508131 13.0317 0.0056459 12.6592C0.19196 9.86545 0 7.28056 0 4.00148C0.163731 2.15594 2.51807 1.35451 3.83921 2.63002C4.00859 2.79369 4.49413 3.48789 4.49413 3.68542V13.6694H0.914635Z" fill="url(#paint1_linear_76_5105)"/>
<defs>
<linearGradient id="paint0_linear_76_5105" x1="12.5" y1="0" x2="12.5" y2="25" gradientUnits="userSpaceOnUse">
<stop stop-color="#FF4E71"/>
<stop offset="1" stop-color="#FB0230"/>
</linearGradient>
<linearGradient id="paint1_linear_76_5105" x1="12.5" y1="0" x2="12.5" y2="25" gradientUnits="userSpaceOnUse">
<stop stop-color="#FF4E71"/>
<stop offset="1" stop-color="#FB0230"/>
</linearGradient>
</defs>
</svg>
