<svg width="27" height="25" viewBox="0 0 27 25" fill="none" xmlns="http://www.w3.org/2000/svg">
<path d="M18.5298 0C19.3447 -0.01735 19.8789 0.515403 19.9019 1.46387C19.9134 1.90301 20.0452 2.04751 20.481 2.03027C21.2557 2.00136 22.0314 2.01285 22.8062 2.02441C25.0728 2.06509 26.8287 3.73631 26.8462 6.00879C26.8806 11.0113 26.8864 16.02 26.8462 21.0225C26.829 23.2837 25.0325 24.9845 22.7827 24.9902C19.6606 25.0076 16.5386 24.9961 13.4165 24.9961C10.3576 24.9961 7.29867 25.0019 4.23975 24.9961C1.73748 24.9903 0.0101337 23.2608 0.00439453 20.7393C-0.00134433 15.9277 -0.00134407 11.1104 0.00439453 6.29883C0.00439453 3.76011 1.7027 2.04198 4.21045 2.02441C4.9221 2.01863 5.64028 1.99557 6.34619 2.03027C6.81656 2.05333 6.95471 1.90284 6.96045 1.42871C6.97198 0.526602 7.51114 0 8.29736 0C9.0778 0.00586212 9.63416 0.561428 9.62842 1.44043C9.62268 1.93192 9.78358 2.03602 10.2368 2.03027C12.3718 2.00714 14.513 2.00714 16.6479 2.03027C17.0723 2.036 17.2269 1.93196 17.2271 1.47559C17.2271 0.579282 17.7552 0.0174817 18.5298 0ZM12.3081 12.6211C11.454 11.7412 10.416 11.6457 9.60986 12.3018C9.57812 12.3257 9.55378 12.35 9.52197 12.3818C9.44228 12.4617 9.36307 12.534 9.29932 12.6299C8.50108 13.55 8.57231 14.5019 9.51416 15.4141C9.90532 15.7901 10.289 16.1739 10.6802 16.542C10.289 16.9261 9.90532 17.3104 9.51416 17.6865C8.64433 18.5425 8.54052 19.5826 9.20264 20.3906C9.22654 20.4226 9.24309 20.4467 9.2749 20.4707C9.36263 20.5586 9.43427 20.6312 9.52197 20.7031C10.4399 21.4952 11.3902 21.4313 12.3081 20.4795C12.6833 20.0954 13.0587 19.7026 13.4419 19.3105C13.8171 19.7026 14.1927 20.0954 14.5679 20.4795C15.4777 21.4232 16.4194 21.495 17.3452 20.7031C17.4091 20.6551 17.4737 20.599 17.5376 20.543C17.5693 20.5111 17.5929 20.4791 17.6167 20.4473C18.3431 19.6312 18.2477 18.5587 17.3618 17.6865C16.9707 17.3104 16.587 16.9261 16.1958 16.542C16.5869 16.1739 16.9707 15.7901 17.3618 15.4141C18.3035 14.5021 18.3673 13.5659 17.5854 12.6299C17.5296 12.5739 17.4734 12.5013 17.4175 12.4453C17.3856 12.4133 17.3616 12.3814 17.3218 12.3574C16.5156 11.6374 15.4379 11.7253 14.5679 12.6211C14.1928 13.0051 13.8092 13.3973 13.4341 13.7812C13.059 13.3972 12.6832 13.0051 12.3081 12.6211ZM10.4097 4.69043C9.86445 4.68465 9.58886 4.73734 9.61182 5.4082C9.64025 6.17713 9.00874 6.72654 8.2915 6.72656C7.56263 6.73235 7.02334 6.19962 6.94873 5.41309C6.93729 5.30919 6.93144 5.19959 6.94287 5.0957C6.97157 4.80075 6.85056 4.69051 6.54639 4.69629C5.68575 4.71362 4.83085 4.67919 3.97021 4.71387C3.22997 4.74278 2.73634 5.27462 2.70752 6.02051C2.6903 6.50631 2.73597 6.99272 2.6958 7.47852C2.65 8.00445 2.86226 8.10251 3.33838 8.10254C6.69566 8.09676 10.0474 8.10254 13.3989 8.10254C16.7907 8.10254 20.1829 8.09683 23.5747 8.1084C23.9936 8.1084 24.1891 8.01607 24.1548 7.55371C24.1203 7.09105 24.1545 6.62763 24.1431 6.15918C24.1257 5.22834 23.632 4.73121 22.6909 4.71387C21.9392 4.7023 21.1818 4.73681 20.4302 4.70215C20.017 4.6848 19.9075 4.82368 19.896 5.22852C19.873 6.17684 19.3452 6.73806 18.5591 6.73242C17.7728 6.73242 17.2212 6.14799 17.2212 5.22266C17.2212 4.80062 17.0953 4.69634 16.6938 4.69629C14.5992 4.71364 12.5043 4.72512 10.4097 4.69043Z" fill="url(#paint0_linear_76_5086)"/>
<defs>
<linearGradient id="paint0_linear_76_5086" x1="13.4366" y1="0" x2="13.4366" y2="24.9993" gradientUnits="userSpaceOnUse">
<stop stop-color="#FF4E71"/>
<stop offset="1" stop-color="#FB0230"/>
</linearGradient>
</defs>
</svg>
