<svg width="25" height="25" viewBox="0 0 25 25" fill="none" xmlns="http://www.w3.org/2000/svg">
<path d="M12.5 0C19.4036 2.73172e-05 25 5.59638 25 12.5C24.9999 19.4035 19.4035 25 12.5 25C5.59645 25 0.000126278 19.4035 0 12.5C0 5.59637 5.59637 0 12.5 0ZM17.1729 6.25C15.7251 6.26267 14.2788 6.25586 12.8311 6.25586C11.3726 6.25586 9.91158 6.26267 8.45312 6.25C8.19195 6.24796 8.07743 6.31581 8.02344 6.57129C7.88734 7.2217 7.7277 7.86795 7.55273 8.50781C7.46846 8.81623 7.49449 8.94286 7.87695 8.93652C8.73033 8.92384 9.58803 8.88604 10.4414 8.95996C10.934 9.00432 11.3687 9.18791 11.6777 9.58496C11.7404 9.6673 11.8673 9.74998 11.792 9.86816C11.7337 9.959 11.6058 9.91113 11.5107 9.91113C10.4672 9.91536 9.42148 9.92088 8.37793 9.9082C8.11647 9.90398 7.96557 9.9531 7.90723 10.2383C7.81001 10.7072 7.6799 11.1717 7.53516 11.6279C7.43792 11.9406 7.54201 12.0023 7.84668 11.998C9.11713 11.9854 10.3878 11.9977 11.6582 11.9893C11.926 11.9893 11.958 12.0632 11.8457 12.2871C11.4805 13.0159 10.8582 13.3031 10.0674 13.3115C9.38906 13.32 8.70859 13.3143 8.03027 13.3164C7.90071 13.3164 7.7383 13.2717 7.74023 13.4951C7.74672 14.038 7.74707 14.5793 7.74707 15.1201C7.74709 15.2466 7.84183 15.3162 7.91309 15.3984C9.32842 17.061 10.7507 18.7221 12.166 20.3867C12.3085 20.5575 12.4596 20.6192 12.6797 20.6172C13.6995 20.6087 14.7175 20.6146 15.7373 20.6104C15.8561 20.6104 16.0187 20.6692 16.0879 20.5488C16.1718 20.399 16.0037 20.31 15.9238 20.2129C14.7116 18.749 13.499 17.2875 12.2803 15.832C12.1118 15.6314 12.0838 15.5407 12.3838 15.4414C13.9958 14.907 15.1174 13.9071 15.4609 12.2129C15.4999 12.0253 15.6016 11.9831 15.7764 11.9873C16.0918 11.9958 16.4074 11.9828 16.7207 11.9912C16.8957 11.9954 16.9956 11.9473 17.041 11.7637C17.1706 11.2378 17.3103 10.7158 17.4658 10.1963C17.5393 9.94913 17.4511 9.90187 17.2178 9.9082C16.7533 9.92087 16.2867 9.90223 15.8223 9.91699C15.6042 9.92333 15.5083 9.85173 15.4736 9.63867C15.4175 9.2838 15.301 8.94333 15.1152 8.63281C14.9856 8.41523 15.016 8.33448 15.2861 8.34082C15.7636 8.35138 16.2432 8.3371 16.7207 8.34766C16.9173 8.35188 17.0101 8.2881 17.0576 8.09375C17.1786 7.59117 17.3125 7.09066 17.4658 6.59863C17.5587 6.30304 17.4599 6.24795 17.1729 6.25Z" fill="url(#paint0_linear_76_5091)"/>
<defs>
<linearGradient id="paint0_linear_76_5091" x1="12.5" y1="0" x2="12.5" y2="25" gradientUnits="userSpaceOnUse">
<stop stop-color="#FF4E71"/>
<stop offset="1" stop-color="#FB0230"/>
</linearGradient>
</defs>
</svg>
