<svg width="23" height="25" viewBox="0 0 23 25" fill="none" xmlns="http://www.w3.org/2000/svg">
<path d="M9.49718 0.0916477C10.2237 -0.0322778 12.5756 -0.0215016 13.3387 0.0700954C15.0582 0.269454 14.8648 2.07984 15.3195 3.36759C15.8631 3.54001 16.992 4.58529 17.4572 4.52064C18.5966 4.36438 19.898 3.21134 20.959 4.54219C21.2882 4.95707 22.9294 7.94744 22.9816 8.37849C23.175 9.93025 21.7952 10.3613 21.0269 11.4012C21.1471 12.1178 21.1471 12.8721 21.0269 13.5941C21.8109 14.6448 23.2325 15.092 22.9659 16.6977C22.9032 17.0748 21.1628 20.2484 20.8753 20.5609C20.5879 20.8734 19.9241 21.1213 19.5008 21.0943C18.8945 21.0566 17.7499 20.4316 17.2952 20.4639C16.9084 20.4909 15.9154 21.4553 15.4188 21.5415C14.7812 22.7107 15.1627 24.6774 13.4223 24.9198C12.6488 25.0276 10.4536 25.0222 9.66443 24.9306C7.9449 24.7313 8.13829 22.9209 7.68358 21.6331C7.14002 21.4607 6.01109 20.4154 5.54593 20.4801C4.42745 20.6309 3.52849 21.6062 2.33684 20.7387C1.94485 20.4585 0.617311 18.0285 0.340306 17.4574C-0.652735 15.3668 0.831599 14.9627 1.96576 13.6103C1.82987 12.8667 1.89258 12.0909 1.94485 11.3419C1.11906 10.3451 -0.22416 9.85482 0.0319403 8.29767C0.0998852 7.89356 1.92394 4.60146 2.22186 4.34283C2.51977 4.0842 3.11037 3.87946 3.49713 3.9064C4.10341 3.94411 5.24802 4.56913 5.70272 4.5368C6.08949 4.50986 7.06685 3.53462 7.57905 3.45919C8.20623 2.33847 7.84037 0.382603 9.49718 0.0970358V0.0916477ZM13.5582 15.7817C13.8457 14.634 14.8701 14.2353 15.4345 13.2008C17.5304 9.3645 13.7568 5.02173 9.80555 6.62198C6.95186 7.77503 6.032 11.6113 8.11215 13.9928C8.41529 14.3377 8.84387 14.5694 9.08951 14.925C9.24108 15.1459 9.40311 15.7494 9.43447 15.7817C9.59126 15.9218 13.0408 15.7063 13.553 15.7817H13.5582ZM13.5686 16.8647H9.42401C9.37697 17.7968 9.56513 18.6104 10.5948 18.7128C11.0808 18.7613 12.6174 18.7721 12.9937 18.5565C13.5321 18.244 13.6157 17.4466 13.5686 16.8647Z" fill="url(#paint0_linear_76_5096)"/>
<defs>
<linearGradient id="paint0_linear_76_5096" x1="11.5" y1="0" x2="11.5" y2="25" gradientUnits="userSpaceOnUse">
<stop stop-color="#FF4E71"/>
<stop offset="1" stop-color="#FB0230"/>
</linearGradient>
</defs>
</svg>
