<svg width="22" height="25" viewBox="0 0 22 25" fill="none" xmlns="http://www.w3.org/2000/svg">
<path d="M3.41664 0.0349074C9.05211 0.0349074 12.1436 0 18.3837 0C20.3573 0.168719 21.8004 1.52429 22 3.55474V22.3698C21.9658 23.3589 21.0531 24.4992 20.0949 24.633C17.8647 24.9471 17.1289 22.6607 14.6648 23.6498C13.273 24.2141 12.7768 25.0228 10.9401 24.9995C8.8867 24.9762 7.7288 23.417 6.22867 23.3647C4.35779 23.3007 3.38813 25.4824 1.30049 24.4294C0.581799 24.0686 0.0570391 23.1785 0 22.364L0.0171117 3.33947C0.26238 1.57665 1.66554 0.162901 3.41664 0.0349074ZM16.8037 5.41065C16.6554 5.23611 16.2219 5.04994 15.9824 5.02085C12.9023 4.64268 9.06922 5.30592 5.90355 5.03248C4.60306 5.27683 4.53461 7.31892 5.89214 7.48182L16.1991 7.47018C17.106 7.32473 17.3456 6.03898 16.798 5.41065H16.8037ZM16.8037 12.1129C17.3456 11.4845 17.106 10.1988 16.2048 10.0533C12.6513 10.0941 9.06352 9.93697 5.5328 10.1348C4.52891 10.6933 4.79129 12.3049 5.90926 12.491C9.06922 12.2118 12.9023 12.8808 15.9881 12.5027C16.2276 12.4736 16.6611 12.2874 16.8094 12.1129H16.8037ZM11.8756 15.3418C11.6645 15.1265 11.2367 14.9869 10.9401 14.952C9.93622 14.8356 7.12419 14.824 6.13741 14.9636C4.47757 15.1964 4.47757 17.285 6.13741 17.5119C7.07285 17.6399 10.113 17.6457 11.0428 17.5119C12.098 17.3606 12.657 16.1447 11.8756 15.3418Z" fill="url(#paint0_linear_76_5102)"/>
<defs>
<linearGradient id="paint0_linear_76_5102" x1="11" y1="0" x2="11" y2="25" gradientUnits="userSpaceOnUse">
<stop stop-color="#FF4E71"/>
<stop offset="1" stop-color="#FB0230"/>
</linearGradient>
</defs>
</svg>
