<svg width="27" height="25" viewBox="0 0 27 25" fill="none" xmlns="http://www.w3.org/2000/svg">
<path d="M21.7249 17.3908H23.7831C24.084 17.3908 25.101 17.8282 25.3838 18.0192C28.1822 19.8797 27.1531 24.5554 23.7831 24.8511C18.3548 25.3255 12.2766 24.4815 6.78218 24.8511C4.8504 24.5739 3.72503 23.0461 3.56856 21.1179V7.52186C-0.854673 6.99823 -1.34213 0.985666 3.09916 0L18.7039 0.0123208C20.0158 0.0924062 21.7249 1.88509 21.7249 3.18493V17.3908ZM14.8644 1.94669H3.30979C3.13527 1.94669 2.46125 2.38408 2.32284 2.55657C1.69696 3.32662 1.93166 4.58951 2.73206 5.13162C2.81631 5.18707 3.26164 5.40884 3.30979 5.40884H14.8644C14.3408 4.26301 14.3589 3.09869 14.8644 1.95285V1.94669ZM19.083 9.07429H5.89151V11.021H19.083V9.07429ZM19.083 12.9615H5.89151V15.0129H19.083V12.9615ZM19.083 16.9596H5.89151V18.9063H19.083V16.9596ZM23.8854 19.4484C23.2655 19.3375 22.3748 19.5285 21.7249 19.4484V21.4444C21.7249 21.5614 21.9897 22.0235 22.092 22.1467C23.1873 23.5759 25.438 22.541 25.0529 20.736C24.9445 20.2185 24.4029 19.5408 23.8854 19.4484Z" fill="url(#paint0_linear_76_5120)"/>
<defs>
<linearGradient id="paint0_linear_76_5120" x1="13.5" y1="0" x2="13.5" y2="25" gradientUnits="userSpaceOnUse">
<stop stop-color="#FF4E71"/>
<stop offset="1" stop-color="#FB0230"/>
</linearGradient>
</defs>
</svg>
