<svg width="22" height="25" viewBox="0 0 22 25" fill="none" xmlns="http://www.w3.org/2000/svg">
<path d="M13.342 11.9838V14.4578C13.342 14.6856 13.7899 15.0158 14.0567 15.0158C14.3235 15.0158 14.7714 14.6856 14.7714 14.4578V11.9838H19.4888C19.7032 11.9838 20.5037 12.4628 20.6848 12.6302C20.8754 12.8116 21.3471 13.551 21.3471 13.7602V16.755C18.0593 16.3504 18.0593 20.6287 21.3471 20.2288V23.2236C21.3471 23.4328 20.8754 24.1769 20.6848 24.3536C20.5037 24.521 19.7032 25 19.4888 25H14.7714V22.526C14.7714 22.2982 14.3235 21.968 14.0567 21.968C13.7899 21.968 13.342 22.2982 13.342 22.526V25H1.85834C1.64392 25 0.843402 24.521 0.662333 24.3536C0.471733 24.1722 0 23.4328 0 23.2236V20.2288C3.28784 20.6334 3.28784 16.3551 0 16.755V13.7602C0 13.551 0.471733 12.8069 0.662333 12.6302C0.843402 12.4628 1.64392 11.9838 1.85834 11.9838H13.342ZM14.557 16.7829C14.1282 16.4202 13.4325 16.6853 13.3467 17.2433C13.2705 17.7409 13.2705 19.2522 13.3467 19.7498C13.4706 20.5683 14.638 20.5683 14.7619 19.7498C14.8382 19.2383 14.8334 17.8432 14.7714 17.3224C14.7572 17.1922 14.6523 16.862 14.5523 16.7829H14.557Z" fill="url(#paint0_linear_76_5111)"/>
<path d="M21.6473 7.03125L19.4792 4.91536C17.4446 7.46838 14.3474 4.44568 16.9633 2.46001L14.7953 0.344122C14.638 0.195312 13.7708 0 13.504 0C13.2562 0.0046503 12.3413 0.218564 12.1888 0.367373L8.85333 3.62258L10.645 5.37109C10.8117 5.53385 10.7355 6.07329 10.5449 6.2593C10.3543 6.44531 9.80156 6.51971 9.63478 6.35695L7.84315 4.60844L2.66838 9.65866H12.9607C12.4795 9.21689 11.8743 8.60305 11.6551 8.32403C11.3121 7.8683 11.6123 7.20331 12.1793 7.16146C12.3032 7.15215 12.6129 7.31027 12.7225 7.39397C13.1466 7.71949 14.1615 8.7007 14.476 9.11458C14.6142 9.29594 14.6523 9.4866 14.6237 9.65866H19.9653C20.4084 9.65866 20.8516 9.77027 21.2566 9.93303L21.6235 9.57496C21.776 9.42615 21.9952 8.53329 21.9999 8.29148C22.0047 8.03106 21.7998 7.18471 21.6473 7.03125Z" fill="url(#paint1_linear_76_5111)"/>
<defs>
<linearGradient id="paint0_linear_76_5111" x1="11" y1="0" x2="11" y2="25" gradientUnits="userSpaceOnUse">
<stop stop-color="#FF4E71"/>
<stop offset="1" stop-color="#FB0230"/>
</linearGradient>
<linearGradient id="paint1_linear_76_5111" x1="11" y1="0" x2="11" y2="25" gradientUnits="userSpaceOnUse">
<stop stop-color="#FF4E71"/>
<stop offset="1" stop-color="#FB0230"/>
</linearGradient>
</defs>
</svg>
