<svg width="20" height="20" viewBox="0 0 20 20" fill="none" xmlns="http://www.w3.org/2000/svg">
<path d="M14.1724 19.9876C13.0417 19.9876 11.9111 19.9932 10.7805 19.9876C9.32356 19.9819 8.4348 19.1118 8.42917 17.6542C8.41792 15.3999 8.41792 13.1456 8.42917 10.8914C8.4348 9.43371 9.31794 8.55799 10.7748 8.55234C13.0642 8.54669 15.3537 8.54669 17.6431 8.55234C19.0887 8.55799 19.9775 9.45631 19.9775 10.9083C19.9831 13.1456 19.9831 15.3886 19.9775 17.6259C19.9775 19.0779 19.0887 19.9819 17.6487 19.9876C16.4899 19.9932 15.3312 19.9876 14.1724 19.9876Z" fill="black"/>
<path d="M5.67856 7.11733C4.54792 7.11733 3.41728 7.12298 2.28664 7.11733C0.885989 7.10603 0.0197262 6.21901 0.00847608 4.81221C0.002851 3.97604 0.002851 3.13986 0.00847608 2.30369C0.0197262 0.936435 0.91974 0.0268146 2.28101 0.0211647C4.57042 0.00986511 6.85983 0.00986511 9.14924 0.0211647C10.488 0.0268146 11.388 0.930785 11.4049 2.26979C11.4161 3.13421 11.4161 4.00428 11.4049 4.86871C11.388 6.21336 10.5049 7.10038 9.15486 7.11733C8.00172 7.12863 6.84295 7.11733 5.67856 7.11733Z" fill="black"/>
<path d="M6.56166 14.2646C6.56166 15.3832 6.56729 16.5019 6.56166 17.6262C6.55041 19.1121 5.6729 19.9878 4.1935 19.9935C3.54099 19.9991 2.88286 20.0048 2.23035 19.9935C0.925327 19.9652 0.0140627 19.0613 0.00843763 17.7505C-0.00281254 15.4341 -0.00281254 13.1233 0.00843763 10.8069C0.0140627 9.49047 0.908451 8.5865 2.2191 8.55825C2.89973 8.5413 3.58599 8.54695 4.27225 8.55825C5.64477 8.5752 6.53354 9.44527 6.55604 10.8238C6.57854 11.9651 6.56166 13.112 6.56166 14.2646Z" fill="black"/>
<path d="M13.2668 3.57492C13.2668 3.09469 13.2499 2.6201 13.2724 2.13987C13.3174 0.930807 14.1724 0.0607355 15.3706 0.0211868C16.2031 -0.00706227 17.0356 -0.00706227 17.8681 0.0211868C19.0775 0.0607355 19.955 0.953406 19.9831 2.17942C20.0056 3.10599 20.0056 4.03256 19.9831 4.95348C19.955 6.20208 19.0719 7.07781 17.8287 7.10605C17.0131 7.123 16.1918 7.12865 15.3762 7.10605C14.1724 7.07216 13.323 6.21903 13.2724 5.00432C13.2499 4.52974 13.2668 4.05516 13.2668 3.57492Z" fill="black"/>
</svg>
