<svg width="23" height="25" viewBox="0 0 23 25" fill="none" xmlns="http://www.w3.org/2000/svg">
<path d="M11.1033 0.0393415C12.831 -0.26652 13.2776 1.28726 14.3589 2.06415C15.0817 2.58411 16.4273 1.95404 17.2618 1.96015C18.1609 1.96015 18.9424 2.54741 19.2539 3.40382C19.5066 4.10118 19.5595 5.75284 19.8474 6.19939C20.0766 6.55419 21.816 7.22097 22.3214 7.71647C23.8727 9.24578 22.3507 10.8668 21.8042 12.4573C22.3155 14.1457 23.9961 15.9013 22.1686 17.4123C21.7161 17.7854 20.0413 18.4828 19.8415 18.7948C19.5888 19.1924 19.4948 20.7584 19.3185 21.3701C19.0365 22.3244 18.3372 22.9912 17.3441 23.034C16.5449 23.0646 15.3461 22.5324 14.5822 22.7832C14.2178 22.8994 13.3129 24.1107 12.8956 24.441C12.0436 25.1078 11.2444 25.1995 10.3277 24.6C9.78703 24.2452 8.7998 22.9117 8.41196 22.7893C7.07802 22.3611 4.95077 24.0005 3.87539 21.9513C3.42879 21.101 3.52869 19.3881 3.1526 18.8009C2.92342 18.4461 1.18401 17.7793 0.678641 17.2838C-0.872724 15.7545 0.649259 14.1334 1.19576 12.543C0.684517 10.8546 -0.996128 9.09896 0.831427 7.58801C1.28391 7.21485 2.95868 6.51749 3.15847 6.20551C3.41116 5.80789 3.50518 4.24188 3.68147 3.63016C3.96354 2.67587 4.66283 2.00909 5.65594 1.96627C6.45512 1.93568 7.65391 2.46788 8.41784 2.21708C9.11713 1.99074 9.88693 0.259562 11.1033 0.0393415ZM10.5333 6.78053C8.22979 4.38258 4.58644 8.01621 6.90761 10.5059C9.22878 12.9956 12.9015 9.24578 10.5333 6.78053ZM15.7368 6.875C15.5958 6.90559 15.4842 6.99734 15.3843 7.09522L6.29937 16.5586C5.72349 17.3049 7.00163 18.5437 7.72442 17.9381L17.0003 8.61882C17.4704 8.0438 16.4361 6.70983 15.731 6.875H15.7368ZM16.063 18.2198C18.4429 15.8157 14.829 11.9496 12.4432 14.5005C10.1631 16.9351 13.6831 20.6238 16.063 18.2198Z" fill="url(#paint0_linear_76_5108)"/>
<path d="M8.67049 7.45342C9.88102 7.36777 10.3923 9.16012 9.264 9.72902C7.56573 10.5793 6.85468 7.58188 8.67049 7.45342Z" fill="url(#paint1_linear_76_5108)"/>
<path d="M14.0121 15.155C15.3461 14.8675 16.0101 16.8433 14.7761 17.4122C13.1424 18.1708 12.4373 15.4914 14.0121 15.155Z" fill="url(#paint2_linear_76_5108)"/>
<defs>
<linearGradient id="paint0_linear_76_5108" x1="11.5" y1="0" x2="11.5" y2="25" gradientUnits="userSpaceOnUse">
<stop stop-color="#FF4E71"/>
<stop offset="1" stop-color="#FB0230"/>
</linearGradient>
<linearGradient id="paint1_linear_76_5108" x1="11.5" y1="0" x2="11.5" y2="25" gradientUnits="userSpaceOnUse">
<stop stop-color="#FF4E71"/>
<stop offset="1" stop-color="#FB0230"/>
</linearGradient>
<linearGradient id="paint2_linear_76_5108" x1="11.5" y1="0" x2="11.5" y2="25" gradientUnits="userSpaceOnUse">
<stop stop-color="#FF4E71"/>
<stop offset="1" stop-color="#FB0230"/>
</linearGradient>
</defs>
</svg>
