<svg width="44" height="49" viewBox="0 0 44 49" fill="none" xmlns="http://www.w3.org/2000/svg">
<path d="M7.49403 41.9966C6.57927 43.0055 5.18022 42.4809 4.62867 41.324C2.7857 37.4362 2.57046 30.2392 3.64665 26.1362C6.96939 13.5044 23.0719 6.67061 33.5782 15.5492C38.2193 19.4638 43.95 29.7684 39.43 35.3107C35.3674 40.3016 27.2825 37.7187 26.2736 31.5844C26.1794 30.9925 26.2736 30.4275 26.2063 29.876C25.5202 25.2753 18.8747 25.1273 18.3097 30.0778C17.5833 36.3331 21.8881 43.2342 28.1703 44.5929C29.7443 44.9292 33.2419 44.3911 33.1208 46.7049C32.9863 49.1801 28.4125 48.104 26.8655 47.6869C19.2514 45.6287 14.153 37.6649 14.9063 29.8625C15.5655 23.0153 23.9597 20.54 28.1165 25.7865C30.0671 28.2617 29.0986 30.8445 30.4034 32.6337C33.1612 36.4138 38.1924 34.4901 37.7215 29.4859C36.874 20.4055 27.982 13.0605 18.8747 15.3609C8.26082 18.0513 4.89772 27.737 7.06356 37.7053C7.3326 38.9698 8.47606 40.9338 7.49403 42.01V41.9966Z" fill="#414141"/>
<path d="M19.0227 45.4942C20.0047 46.678 18.942 48.9783 16.8972 48.1174C14.8524 47.2564 12.3503 43.9202 11.3548 41.9427C7.45363 34.1134 8.20696 20.2709 18.3501 17.8092C24.8476 16.2352 31.5065 18.4145 34.197 24.8448C34.8023 26.2976 36.5108 31.571 34.2239 32.0821C31.5603 32.674 32.0849 29.6742 31.6814 27.9523C30.3899 22.4368 25.9507 20.2844 20.5563 20.809C10.1037 21.818 10.8167 38.62 17.1797 44.2296C17.5967 44.5929 18.794 45.2251 19.0092 45.4807L19.0227 45.4942Z" fill="#414141"/>
<path d="M4.45374 13.5314C15.4443 2.60807 33.6589 3.17307 42.1204 16.7465C42.7796 17.8093 43.9499 19.4505 43.6943 20.715C43.506 21.7239 42.0128 22.0871 41.2056 21.6297C40.6406 21.3069 39.134 18.2397 38.5017 17.3788C29.8249 5.52724 13.0902 7.27605 4.69588 18.455C4.11743 19.2352 2.90671 21.6567 2.08612 21.8046C1.06374 21.993 0.0413556 21.4145 0.000998442 20.3114C-0.0662635 18.7644 3.28338 14.7018 4.45374 13.5314Z" fill="#414141"/>
<path d="M21.2155 0.0118069C25.574 -0.109265 30.686 0.697878 34.6275 2.56776C35.8382 3.14621 38.0848 4.04752 37.6139 5.67526C36.8606 8.29848 34.2643 6.06538 32.9056 5.48693C26.5023 2.72919 17.9869 2.63502 11.5836 5.48693C10.2383 6.07883 8.20702 8.08324 7.06357 6.09228C6.17571 4.54526 7.79 3.6574 8.93345 3.02514C12.4849 1.1149 17.2067 0.132878 21.2155 0.0118069Z" fill="#414141"/>
<path d="M22.0091 28.7865C22.5068 28.7058 23.3408 29.0421 23.6233 29.4726C24.1883 30.3201 24.0404 32.7684 24.5381 34.1137C26.0582 38.2974 30.3764 39.8175 34.466 40.2749C35.6094 40.3959 38.3133 39.8444 38.69 41.4049C39.3357 44.1357 36.3224 43.7725 34.466 43.638C28.9639 43.2613 23.2198 40.6112 21.3633 35.0957C20.8387 33.5352 19.6818 29.1632 22.0091 28.7865Z" fill="#414141"/>
</svg>
