<svg width="15" height="20" viewBox="0 0 15 20" fill="none" xmlns="http://www.w3.org/2000/svg">
<path d="M14.9977 10.0289C14.9977 12.4261 15.0028 14.8234 14.9977 17.2206C14.9926 19.0143 14.1071 19.9958 12.4793 19.9958C9.15731 20.0014 5.83529 20.0014 2.51327 19.9958C0.885531 19.9958 0 19.02 0 17.2206C0 12.4092 0 7.59783 0 2.78643C0 0.987097 0.890649 0.00564056 2.51327 0.00564056C5.83017 0 9.15731 0 12.4793 0C14.102 0 14.9926 0.987097 14.9977 2.78079C15.0028 5.20059 14.9977 7.61475 14.9977 10.0289ZM7.49374 14.1296C6.31133 14.1296 5.12891 14.124 3.9465 14.1296C3.35785 14.1296 3.00978 14.4342 2.99443 14.9362C2.97907 15.4664 3.33226 15.7992 3.95162 15.7992C6.31645 15.8048 8.68128 15.8048 11.0461 15.7992C11.6348 15.7992 11.9879 15.489 12.0033 14.9926C12.0187 14.4737 11.6501 14.1296 11.041 14.1296C9.85857 14.124 8.67616 14.1296 7.49374 14.1296ZM7.48862 9.16026C8.67104 9.16026 9.85345 9.1659 11.0359 9.16026C11.645 9.16026 12.0135 8.82183 12.0033 8.3029C11.9931 7.80089 11.6399 7.49066 11.0512 7.49066C8.6864 7.48502 6.32157 7.48502 3.95674 7.49066C3.33226 7.49066 2.98419 7.81217 2.99954 8.34802C3.0149 8.85567 3.36297 9.16026 3.9465 9.1659C5.1238 9.16026 6.30621 9.16026 7.48862 9.16026ZM7.48862 12.4826C8.67104 12.4826 9.85345 12.4882 11.0359 12.4826C11.6501 12.4826 12.0135 12.1441 11.9982 11.6252C11.9828 11.1232 11.6296 10.8073 11.0461 10.8073C8.68128 10.8017 6.31645 10.8017 3.95162 10.8073C3.33226 10.8073 2.97907 11.1345 2.98931 11.6647C2.99955 12.1723 3.34761 12.4826 3.93626 12.4826C5.1238 12.4882 6.30621 12.4826 7.48862 12.4826ZM7.43232 5.82669C8.65056 5.82669 9.86369 5.83233 11.0819 5.82669C11.6501 5.82669 12.0135 5.48262 12.0033 4.98061C11.9931 4.49552 11.6603 4.17965 11.1024 4.17401C8.70687 4.16837 6.30621 4.16837 3.91067 4.17401C3.32202 4.17401 2.98419 4.49552 2.99443 5.01445C3.00466 5.5221 3.35273 5.82669 3.94138 5.82669C5.10332 5.83233 6.26526 5.82669 7.43232 5.82669Z" fill="#AAAAAA"/>
</svg>
