<svg width="20" height="20" viewBox="0 0 20 20" fill="none" xmlns="http://www.w3.org/2000/svg">
<path d="M3.08038 0.25736C3.01263 0.00903015 3.37848 0 3.5456 0C7.74615 0 11.6892 0.00451509 16.879 0.00451509C18.5185 0.24833 19.8103 1.54416 20 3.2012V19.1801C19.9594 19.9612 19.2276 20.1915 18.5682 19.8348C18.3062 19.6903 17.8184 19.2885 17.3261 18.8595C16.4905 18.1326 15.2439 18.1461 14.4173 18.8866C14.1554 19.1214 13.8934 19.3517 13.6269 19.5548C13.2475 19.8438 13.0533 20.065 12.5248 19.9793C12.2222 19.9296 11.6396 19.4284 11.0569 18.8911C10.2439 18.1416 8.99728 18.1055 8.15265 18.8234C7.48418 19.3878 6.78409 19.9477 6.53567 19.9838C6.07044 20.0515 5.71814 19.9115 5.51037 19.4826L5.46069 3.30504C5.28905 1.94149 4.40378 0.699838 3.08038 0.261875V0.25736ZM16.1247 3.87394C15.9711 3.71592 15.6459 3.61207 15.4291 3.58949C14.3496 3.46759 11.0162 3.44953 9.96837 3.59852C8.79402 3.76558 8.79402 5.2962 9.96837 5.46325C10.944 5.59871 14.5348 5.59871 15.5059 5.46325C16.2963 5.35038 16.7073 4.46091 16.1247 3.87846V3.87394ZM9.80577 7.28283C8.85726 7.54471 8.85726 8.77281 9.79222 9.05275H15.6775C16.6441 8.79087 16.5944 7.4228 15.5917 7.26929C13.9024 7.00741 11.5628 7.43635 9.80577 7.28283ZM9.71995 10.9536C8.81661 11.3329 8.90243 12.5203 9.87804 12.7235C11.6215 12.5474 13.916 12.9809 15.5917 12.7235C16.6034 12.5655 16.635 11.1929 15.6775 10.9401L9.71995 10.9536Z" fill="#AAAAAA"/>
<path d="M0.731708 10.9355C0.487805 10.9355 -0.0406505 10.4253 0.00451672 10.1273C0.153568 7.89236 0 5.82445 0 3.20118C0.130985 1.72475 2.01446 1.08361 3.07137 2.10402C3.20687 2.23496 3.59531 2.79031 3.59531 2.94834V10.9355H0.731708Z" fill="#AAAAAA"/>
</svg>
