<svg width="18" height="20" viewBox="0 0 18 20" fill="none" xmlns="http://www.w3.org/2000/svg">
<path d="M2.79544 0.0279259C7.40627 0.0279259 9.9357 0 15.0412 0C16.656 0.134975 17.8367 1.21943 18 2.84379V17.8959C17.972 18.6871 17.2253 19.5993 16.4413 19.7064C14.6165 19.9577 14.0145 18.1286 11.9984 18.9198C10.8597 19.3713 10.4537 20.0182 8.951 19.9996C7.27094 19.981 6.32357 18.7336 5.09619 18.6917C3.56547 18.6405 2.7721 20.3859 1.06404 19.5435C0.476018 19.2549 0.0466684 18.5428 0 17.8912L0.0140005 2.67158C0.214675 1.26132 1.36272 0.130321 2.79544 0.0279259ZM13.7485 4.32852C13.6272 4.18889 13.2725 4.03995 13.0765 4.01668C10.5564 3.71415 7.42028 4.24474 4.83018 4.02599C3.76614 4.22147 3.71014 5.85513 4.82085 5.98545L13.2538 5.97615C13.9959 5.85979 14.1919 4.83118 13.7438 4.32852H13.7485ZM13.7485 9.69029C14.1919 9.18762 13.9959 8.15902 13.2585 8.04266C10.3511 8.07524 7.41561 7.94958 4.52683 8.10782C3.70547 8.55464 3.92015 9.84388 4.83485 9.99282C7.42027 9.76941 10.5564 10.3047 13.0812 10.0021C13.2772 9.97886 13.6318 9.82992 13.7532 9.69029H13.7485ZM9.71636 12.2734C9.54369 12.1012 9.19367 11.9895 8.951 11.9616C8.12963 11.8685 5.82888 11.8592 5.02152 11.9709C3.66347 12.1571 3.66347 13.828 5.02152 14.0095C5.78688 14.1119 8.27431 14.1165 9.035 14.0095C9.89837 13.8885 10.3557 12.9157 9.71636 12.2734Z" fill="#AAAAAA"/>
</svg>
