<svg width="23" height="20" viewBox="0 0 23 20" fill="none" xmlns="http://www.w3.org/2000/svg">
<g clip-path="url(#clip0_307_11578)">
<path d="M21.3525 0H1.64755C0.736939 0 0 0.552952 0 1.23243V2.985C0 3.66448 0.736939 4.21743 1.64755 4.21743H2.55347L2.44551 17.8819C2.48776 18.538 2.91959 19.2502 3.51102 19.5455C5.23367 20.3889 6.03163 18.6317 7.57122 18.6832C8.80571 18.7254 9.75857 19.9859 11.4484 20C12.9598 20.0187 13.3635 19.3674 14.5135 18.9128C16.5412 18.1115 17.1467 19.9578 18.982 19.7048C19.7706 19.597 20.5169 18.6785 20.5498 17.8819C20.5498 17.8819 20.5169 8.3552 20.4841 4.21743H21.3525C22.2631 4.21743 23 3.66448 23 2.985V1.23243C23 0.552952 22.2631 0 21.3525 0ZM11.5469 14.1799C10.7818 14.2877 8.28469 14.283 7.5149 14.1799C6.14429 13.9925 6.14898 12.3102 7.5149 12.1275C8.32225 12.015 10.6363 12.0244 11.4624 12.1181C11.7065 12.1462 12.0586 12.2587 12.2322 12.4321C12.8753 13.0787 12.42 14.0581 11.5469 14.1799ZM16.2878 9.8313C16.1657 9.97188 15.809 10.1218 15.6118 10.1453C13.0771 10.4499 9.92286 9.91565 7.32245 10.1359C7.03143 10.089 6.81082 9.92971 6.67 9.71884C6.25694 9.09091 6.75449 8.24742 7.5102 8.21462C10.2561 8.0881 13.0349 8.20525 15.7949 8.17245C16.5365 8.2896 16.7337 9.32521 16.2878 9.8313ZM15.7949 6.09185L7.31306 6.09653C6.19122 5.96532 6.25225 4.32052 7.32245 4.12371C9.92286 4.34864 13.0771 3.80975 15.6118 4.11903C15.809 4.14246 16.1657 4.29241 16.2878 4.43299C16.7337 4.9344 16.5365 5.9747 15.7949 6.09185Z" fill="#AAAAAA"/>
</g>
<defs>
<clipPath id="clip0_307_11578">
<rect width="23" height="20" fill="white"/>
</clipPath>
</defs>
</svg>
