<svg width="20" height="20" viewBox="0 0 20 20" fill="none" xmlns="http://www.w3.org/2000/svg">
<path d="M8.00615 13.9669C8.00615 12.6771 7.99663 11.3825 8.00615 10.0926C8.01567 8.83135 8.8248 8.02698 10.0908 8.02222C12.6896 8.0127 15.2883 8.0127 17.8871 8.02222C19.0817 8.02698 19.9384 8.79327 19.9527 9.96889C19.9813 11.8347 20.0479 13.7052 19.8147 15.5662C19.491 18.1411 18.125 19.5071 15.5358 19.8308C13.6748 20.064 11.8043 19.9973 9.93854 19.9688C8.78196 19.9498 8.01567 19.0978 8.00615 17.9364C7.99663 16.6085 8.00615 15.2854 8.00615 13.9669Z" fill="#AAAAAA"/>
<path d="M9.98138 6.00901C7.36361 6.00901 4.75059 6.01377 2.13281 6.00425C1.01431 5.99949 0.124267 5.22368 0.219459 4.27176C0.357487 2.92004 0.881042 1.74442 2.07094 0.968607C2.98478 0.373658 4.02713 0.154716 5.08852 0.107121C8.35836 -0.0404268 11.6282 -0.0309076 14.8933 0.107121C15.374 0.126159 15.8547 0.211832 16.3212 0.326062C18.3392 0.80678 19.472 2.07283 19.7671 4.13373C19.9004 5.06661 19.1388 5.9519 18.1108 5.99474C17.254 6.03281 16.3973 6.00901 15.5406 6.00901C13.6891 6.01377 11.8376 6.00901 9.98138 6.00901Z" fill="#AAAAAA"/>
<path d="M5.99285 13.9767C5.99285 15.3285 6.01189 16.6849 5.98809 18.0367C5.96905 19.0457 5.19324 19.8739 4.3032 19.7834C2.9372 19.6454 1.74254 19.1266 0.957205 17.9224C0.371775 17.0229 0.181392 15.9948 0.095719 14.9524C-0.0423091 13.3199 0.00528677 11.6874 0.0195655 10.0548C0.0338443 8.84589 0.862013 8.04152 2.05667 8.02248C2.72777 8.01296 3.39412 8.0082 4.06522 8.02724C5.16468 8.06055 5.97381 8.86493 5.99285 9.96439C6.01189 11.2971 5.99761 12.6393 5.99285 13.9767C5.99761 13.9767 5.99761 13.9767 5.99285 13.9767Z" fill="#AAAAAA"/>
</svg>
