<svg width="28" height="28" viewBox="0 0 28 28" fill="none" xmlns="http://www.w3.org/2000/svg">
<path d="M14 0C6.27118 0 0 6.26706 0 14C0 21.7288 6.27118 28 14 28C21.7329 28 28 21.7288 28 14C28 6.26706 21.7329 0 14 0ZM21.2265 9.12882C21.1606 9.27294 21.0659 9.40882 20.9671 9.53647C18.3482 12.9129 15.7253 16.2894 13.0982 19.6659C12.8471 19.9953 12.5794 20.3082 12.1965 20.4976C12.0688 20.5594 11.9329 20.6006 11.8218 20.5882C11.5088 20.5965 11.2865 20.4688 11.0765 20.3C10.8006 20.0776 10.5947 19.7935 10.3847 19.5094C9.19882 17.8706 8.16118 16.1329 6.96706 14.4982C6.76118 14.2141 6.64176 13.8929 6.66235 13.5388C6.70353 12.7688 7.45294 12.2747 8.20235 12.5135C8.47824 12.6041 8.70471 12.7688 8.91882 12.95C9.77529 13.6665 10.64 14.3788 11.4882 15.1035C11.6653 15.2559 11.76 15.2476 11.9206 15.0871C14.2306 12.7729 16.5488 10.4629 18.8629 8.15294C19.0853 7.93059 19.3118 7.72059 19.5918 7.57235C20.0859 7.31294 20.5841 7.35824 20.9382 7.69176C21.3376 8.07059 21.4571 8.64706 21.2265 9.12882Z" fill="#118401"/>
</svg>
