<svg width="45" height="44" viewBox="0 0 45 44" fill="none" xmlns="http://www.w3.org/2000/svg">
<path d="M22.5 10C15.5993 10 10 15.5956 10 22.5C10 29.4007 15.5993 35 22.5 35C29.4044 35 35 29.4007 35 22.5C35 15.5956 29.4044 10 22.5 10ZM28.9522 18.1507C28.8934 18.2794 28.8088 18.4007 28.7206 18.5147C26.3824 21.5294 24.0404 24.5441 21.6949 27.5588C21.4706 27.8529 21.2316 28.1324 20.8897 28.3015C20.7757 28.3566 20.6544 28.3934 20.5551 28.3824C20.2757 28.3897 20.0772 28.2757 19.8897 28.125C19.6434 27.9265 19.4596 27.6728 19.2721 27.4191C18.2132 25.9559 17.2868 24.4044 16.2206 22.9449C16.0368 22.6912 15.9301 22.4044 15.9485 22.0882C15.9853 21.4007 16.6544 20.9596 17.3235 21.1728C17.5699 21.2537 17.7721 21.4007 17.9632 21.5625C18.7279 22.2022 19.5 22.8382 20.2574 23.4853C20.4154 23.6213 20.5 23.614 20.6434 23.4706C22.7059 21.4044 24.7757 19.3419 26.8419 17.2794C27.0404 17.0809 27.2426 16.8934 27.4926 16.761C27.9338 16.5294 28.3787 16.5699 28.6949 16.8676C29.0515 17.2059 29.1581 17.7206 28.9522 18.1507Z" fill="#118401"/>
</svg>
