<svg width="40" height="40" viewBox="0 0 40 40" fill="none" xmlns="http://www.w3.org/2000/svg">
<path d="M19.168 10.0295C20.5948 9.78484 20.9637 11.0278 21.8566 11.6493C22.4536 12.0652 23.5649 11.5612 24.2541 11.5661C24.9966 11.571 25.6421 12.0359 25.8993 12.721C26.108 13.2788 26.1516 14.6001 26.3895 14.9573C26.5787 15.2412 28.0152 15.7746 28.4326 16.1709C29.7138 17.3943 28.4569 18.6911 28.0055 19.9635C28.4278 21.3141 29.8158 22.7185 28.3064 23.9272C27.9327 24.2257 26.5496 24.7836 26.3846 25.0332C26.1759 25.3513 26.0983 26.604 25.9527 27.0934C25.7197 27.8568 25.1422 28.3902 24.322 28.4244C23.662 28.4489 22.672 28.0232 22.041 28.2238C21.7402 28.3168 20.9928 29.2857 20.6482 29.5499C19.9445 30.0833 19.2845 30.1567 18.5274 29.6772C18.0809 29.3934 17.2656 28.3266 16.9453 28.2287C15.8436 27.8861 14.0868 29.1976 13.1986 27.5583C12.8347 26.8781 12.9123 25.5079 12.6066 25.0381C12.4173 24.7543 10.9808 24.2209 10.5634 23.8245C9.28217 22.6011 10.5391 21.3043 10.9905 20.032C10.5683 18.6813 9.18026 17.2769 10.6896 16.0682C11.0633 15.7697 12.4464 15.2118 12.6114 14.9622C12.8153 14.6393 12.888 13.3865 13.0385 12.8971C13.2714 12.1338 13.849 11.6004 14.6691 11.5661C15.3292 11.5416 16.3192 11.9674 16.9501 11.7667C17.5325 11.5906 18.1634 10.2057 19.168 10.0295ZM18.6972 15.4222C16.7948 13.5088 13.7859 16.4107 15.7077 18.4024C17.6441 20.4137 20.6531 17.3943 18.6972 15.4222ZM23.1136 15.6473C22.9971 15.6718 22.9049 15.7452 22.8224 15.8235L15.3195 23.3938C14.8439 23.9909 15.533 24.6955 16.1299 24.2111L23.6766 16.6065C24.0697 16.1465 23.696 15.5152 23.1136 15.6473ZM23.264 24.5732C25.2296 22.65 22.2449 19.5573 20.2745 21.5979C18.3915 23.5504 21.2985 26.4964 23.264 24.5732Z" fill="#F200FF"/>
<path d="M17.1588 15.9605C18.1585 15.892 18.5808 17.3258 17.649 17.7809C16.2416 18.4611 15.6592 16.0633 17.1588 15.9605Z" fill="#F200FF"/>
<path d="M21.5703 22.1215C22.672 21.8915 23.2204 23.4721 22.2012 23.9272C20.852 24.5389 20.2697 22.3907 21.5703 22.1215Z" fill="#F200FF"/>
</svg>
