<svg width="113" height="59" viewBox="0 0 113 59" fill="none" xmlns="http://www.w3.org/2000/svg">
<g filter="url(#filter0_di_206_8870)">
<rect width="113" height="58" rx="29" fill="#00A65A"/>
</g>
<path d="M35.3466 29.28V32.32H41.2666V35H32.4266V21H41.0866V23.68H35.3466V26.64H39.6866V29.28H35.3466ZM53.8241 35H50.5441L48.2241 31.76L45.9041 35H42.6041L46.5641 29.66L42.9841 24.6H46.2241L48.2241 27.6L50.2041 24.6H53.4641L49.8641 29.66L53.8241 35ZM60.2334 24.4C62.2534 24.4 63.7334 25.24 64.7134 26.9L62.5134 27.92C61.8534 27.26 61.3134 26.94 60.2734 26.94C59.5734 26.94 58.9334 27.2 58.3934 27.72C57.8534 28.22 57.5934 28.92 57.5934 29.82C57.5934 30.7 57.8534 31.4 58.3934 31.9C58.9334 32.4 59.5734 32.66 60.2734 32.66C61.3134 32.66 61.8734 32.36 62.5134 31.72L64.7334 32.74C63.7534 34.38 62.2534 35.2 60.2334 35.2C59.0334 35.2 57.7534 34.72 56.6534 33.9C55.5534 33.04 54.8134 31.56 54.8134 29.82C54.8134 26.2 57.9134 24.4 60.2334 24.4ZM71.1881 24.4C72.4481 24.4 73.7081 24.9 74.8081 25.86C75.9081 26.82 76.5081 28.64 76.2081 30.82H68.7081C69.0281 32.1 70.1081 32.78 71.4881 32.78C71.9081 32.78 72.2681 32.74 72.5881 32.68C72.9081 32.6 73.1481 32.52 73.2881 32.46C73.4481 32.4 73.6881 32.26 74.0281 32.08L75.6081 33.62C74.5881 34.68 73.1681 35.2 71.3881 35.2C68.8081 35.2 65.8681 33.44 65.8681 29.84C65.8681 26.18 68.8481 24.4 71.1881 24.4ZM71.1881 26.84C70.0881 26.84 69.1081 27.52 68.7281 28.78H73.6281C73.4081 27.56 72.3081 26.84 71.1881 26.84ZM77.872 20.86H80.732V35H77.872V20.86Z" fill="white"/>
<defs>
<filter id="filter0_di_206_8870" x="0" y="0" width="113" height="62" filterUnits="userSpaceOnUse" color-interpolation-filters="sRGB">
<feFlood flood-opacity="0" result="BackgroundImageFix"/>
<feColorMatrix in="SourceAlpha" type="matrix" values="0 0 0 0 0 0 0 0 0 0 0 0 0 0 0 0 0 0 127 0" result="hardAlpha"/>
<feOffset dy="1"/>
<feComposite in2="hardAlpha" operator="out"/>
<feColorMatrix type="matrix" values="0 0 0 0 0 0 0 0 0 0 0 0 0 0 0 0 0 0 0.25 0"/>
<feBlend mode="normal" in2="BackgroundImageFix" result="effect1_dropShadow_206_8870"/>
<feBlend mode="normal" in="SourceGraphic" in2="effect1_dropShadow_206_8870" result="shape"/>
<feColorMatrix in="SourceAlpha" type="matrix" values="0 0 0 0 0 0 0 0 0 0 0 0 0 0 0 0 0 0 127 0" result="hardAlpha"/>
<feOffset dy="4"/>
<feGaussianBlur stdDeviation="2"/>
<feComposite in2="hardAlpha" operator="arithmetic" k2="-1" k3="1"/>
<feColorMatrix type="matrix" values="0 0 0 0 0 0 0 0 0 0 0 0 0 0 0 0 0 0 0.15 0"/>
<feBlend mode="normal" in2="shape" result="effect2_innerShadow_206_8870"/>
</filter>
</defs>
</svg>
