<svg width="19" height="20" viewBox="0 0 19 20" fill="none" xmlns="http://www.w3.org/2000/svg">
<path d="M9.49019 8.01873C12.4304 8.01873 15.3668 8.03072 18.307 8.00673C18.8108 8.00273 19.0076 8.0947 18.9998 8.66647C18.9683 11.3694 18.9919 14.0763 18.984 16.7793C18.9801 18.7465 17.7638 19.99 15.8352 19.994C11.6196 20.002 7.40013 20.002 3.18458 19.994C1.24802 19.99 0.0238987 18.7545 0.0160265 16.8033C0.00815437 14.0763 0.0278348 11.3494 0.00421828 8.62649C0.000282197 8.14268 0.130173 8.00273 0.60644 8.00673C3.56638 8.03072 6.53025 8.01873 9.49019 8.01873ZM10.49 11.6613C10.4781 10.5537 10.608 10.6777 9.70667 10.6737C8.50617 10.6657 8.49829 10.6697 8.5101 11.5613C8.52191 12.7768 8.33691 12.6609 9.44689 12.6609C10.6513 12.6529 10.4703 12.7848 10.49 11.6613ZM5.90441 15.6637C5.88867 14.5442 6.04218 14.6841 5.12113 14.6761C3.93637 14.6641 3.9285 14.6721 3.93637 15.5877C3.94424 16.8193 3.81435 16.6313 4.7905 16.6433C5.90441 16.6553 5.90441 16.6473 5.90441 15.6637ZM9.49806 16.6473C10.6159 16.6313 10.49 16.7873 10.486 15.8077C10.4821 14.5162 10.6395 14.6881 9.65944 14.6761C8.5101 14.6641 8.5101 14.6721 8.5101 15.6077C8.5101 16.6473 8.5101 16.6473 9.49806 16.6473ZM14.0521 16.6473C15.166 16.6273 15.0519 16.8153 15.0597 15.8156C15.0676 14.6761 15.0637 14.6761 14.2253 14.6761C13.0917 14.6761 13.0917 14.6761 13.0917 15.5717C13.0956 16.6473 13.0956 16.6473 14.0521 16.6473ZM4.94794 10.6697C3.83009 10.6937 3.94031 10.4818 3.94031 11.5693C3.94031 12.7888 3.79861 12.6569 4.83773 12.6569C6.07366 12.6569 5.8926 12.7808 5.90441 11.7493C5.91228 10.6697 5.90441 10.6697 4.94794 10.6697ZM13.0956 11.6533C13.1153 12.7649 12.9264 12.6569 14.0049 12.6569C15.1739 12.6569 15.0558 12.8128 15.0597 11.7293C15.0676 10.6697 15.0598 10.6697 14.2096 10.6697C13.0956 10.6697 13.0956 10.6697 13.0956 11.6533Z" fill="#14AE5C"/>
<path d="M9.50196 6.0075C6.5617 6.0075 3.62538 5.99551 0.685124 6.0195C0.173433 6.0235 -0.00762743 5.91954 0.000244739 5.35576C0.0277973 3.24859 1.15745 2.03707 3.23571 2.04907C3.81038 2.05306 3.95601 1.87713 3.9442 1.31336C3.90878 0.0178666 3.93633 0.049854 5.19588 0.00187296C5.80204 -0.0221176 5.94374 0.181802 5.92406 0.761573C5.88469 2.02907 5.91225 2.02907 7.13243 2.02907C8.49038 2.02907 8.514 2.02907 8.49038 0.645619C8.48251 0.113829 8.65964 0.00187296 9.14771 0.0098698C10.4899 0.0298619 10.5135 0.00986988 10.486 1.35734C10.4702 1.89713 10.6277 2.12104 11.1591 2.03307C11.2417 2.02108 11.3283 2.03707 11.4149 2.02907C11.9423 1.99709 12.5957 2.24499 12.9657 1.92911C13.3239 1.62123 13.0562 0.953498 13.0838 0.4417C13.0995 0.149815 13.1665 -0.0181192 13.4813 0.0178666C13.5246 0.0218651 13.5679 0.0178666 13.6073 0.0178666C15.04 -0.0221176 15.0715 -0.0221177 15.0558 1.43731C15.0479 2.03707 15.3352 2.03307 15.7603 2.03707C17.4096 2.04507 18.5038 2.83676 18.8935 4.2562C19.0115 4.68003 18.9564 5.11586 18.9919 5.54369C19.0234 5.92354 18.862 6.0155 18.5117 6.0155C17.0199 5.99951 15.532 6.0075 14.0403 6.0075C12.5249 6.0075 11.0134 6.0075 9.50196 6.0075Z" fill="#14AE5C"/>
</svg>
