<svg width="25" height="25" viewBox="0 0 25 25" fill="none" xmlns="http://www.w3.org/2000/svg">
<path d="M24.915 12.3721C24.915 12.774 24.66 13.0522 24.2272 13.1294C23.2149 13.2917 22.2102 13.5236 21.2365 13.8559C18.7249 14.7059 17.2489 16.4602 16.6307 18.995C16.4838 19.59 16.3679 20.1851 16.2674 20.7878C16.1979 21.2283 15.9197 21.4911 15.5333 21.4911C15.1237 21.4911 14.8223 21.2051 14.7605 20.7569C14.6368 19.8605 14.4436 18.9718 14.15 18.114C13.4236 16.0042 11.9784 14.6287 9.89961 13.8868C8.9027 13.5313 7.87488 13.3072 6.83161 13.1372C6.38339 13.0599 6.11291 12.7662 6.12064 12.3644C6.12837 11.9471 6.39112 11.6843 6.84707 11.6225C8.07581 11.4525 9.2891 11.2129 10.4328 10.726C12.3803 9.89915 13.6013 8.42311 14.235 6.4293C14.4823 5.65651 14.6368 4.86053 14.7528 4.05682C14.8069 3.67042 15.0464 3.42313 15.3942 3.36903C15.7265 3.31494 16.0433 3.4695 16.1824 3.75543C16.2674 3.93317 16.2674 4.12637 16.2984 4.31184C16.4838 5.48649 16.7775 6.63023 17.3184 7.70441C18.1762 9.41229 19.5982 10.4324 21.3756 11.012C22.2875 11.3134 23.2303 11.4911 24.1809 11.607C24.6368 11.6766 24.9073 11.9625 24.915 12.3721Z" fill="#B200D5"/>
<path d="M10.6105 19.8375C10.6182 20.1853 10.3864 20.4403 10.0077 20.5021C9.43582 20.5871 8.87941 20.7262 8.33846 20.9272C7.08653 21.3909 6.39874 22.3259 6.12053 23.5933C6.05871 23.8638 6.01234 24.142 5.95825 24.4125C5.89642 24.7602 5.6414 24.9921 5.32455 24.9998C4.99225 25.0075 4.72177 24.7834 4.65995 24.4202C4.5904 24.0338 4.52857 23.6474 4.42038 23.2687C4.04171 21.9395 3.153 21.1436 1.84698 20.7803C1.44512 20.6722 1.03554 20.5717 0.625959 20.5099C0.247289 20.4558 -5.05604e-06 20.1853 0.0077229 19.8453C0.0154508 19.4898 0.262745 19.2425 0.656871 19.1884C1.29056 19.1034 1.9088 18.9875 2.50385 18.7324C3.43121 18.3306 4.03399 17.6351 4.35856 16.6845C4.49766 16.2672 4.58267 15.8422 4.65995 15.4171C4.7295 14.9921 4.9768 14.7525 5.33228 14.7525C5.68004 14.7603 5.91188 14.9998 5.98143 15.4094C6.09735 16.1281 6.25964 16.8314 6.64603 17.4573C7.20245 18.3692 8.07571 18.802 9.08034 19.0261C9.39719 19.0956 9.71403 19.1343 10.0309 19.1884C10.3786 19.2425 10.6027 19.4898 10.6105 19.8375Z" fill="#B200D5"/>
<path d="M5.30156 10.2473C4.96925 10.2473 4.72196 10.0154 4.65241 9.64448C4.5674 9.13444 4.46694 8.63212 4.2892 8.14526C3.86416 6.97834 2.98317 6.34465 1.83171 6.01235C1.43758 5.90416 1.03573 5.82688 0.626146 5.75732C0.23202 5.68777 -0.00754647 5.43275 0.000181479 5.07726C0.0156374 4.73724 0.262932 4.48221 0.641602 4.43584C1.1671 4.37402 1.66942 4.2581 2.17174 4.09582C3.43912 3.67851 4.15782 2.76661 4.47467 1.50695C4.55195 1.21329 4.59831 0.911898 4.65241 0.610508C4.72196 0.224111 4.96153 0 5.31701 0C5.66477 0 5.89661 0.224111 5.96616 0.625964C6.06662 1.18238 6.16709 1.73879 6.39893 2.26429C6.88579 3.38484 7.78996 3.96444 8.93369 4.24265C9.27372 4.32765 9.61375 4.3972 9.96151 4.43584C10.3634 4.48221 10.6107 4.73724 10.6107 5.09272C10.6184 5.44821 10.3865 5.68777 9.97697 5.75732C9.39737 5.85779 8.83323 5.97371 8.28455 6.19009C7.04035 6.66922 6.36801 7.61976 6.10526 8.88715C6.05117 9.1499 6.0048 9.42037 5.95843 9.68312C5.89661 10.0154 5.62613 10.2473 5.30156 10.2473Z" fill="#B200D5"/>
</svg>
