<svg width="20" height="20" viewBox="0 0 20 20" fill="none" xmlns="http://www.w3.org/2000/svg">
<path d="M1.66911 10.1632C1.66911 11.1579 1.66356 12.1527 1.66911 13.1474C1.67466 13.8548 1.96325 14.1477 2.67362 14.1532C3.96118 14.1587 5.80927 14.1532 7.09683 14.1588C7.64071 14.1643 7.9737 14.424 8.0403 14.8661C8.118 15.3745 7.77391 15.8167 7.22447 15.8222C5.77597 15.8388 3.77249 15.8719 2.32399 15.8111C0.97538 15.7503 0.00971218 14.6561 0.00416236 13.3077C-0.00138745 10.2019 -0.00138745 7.10162 0.00416236 4.00134C0.00971218 2.65844 0.98093 1.69134 2.33509 1.65818C2.64033 1.65265 3.00661 1.7466 3.22861 1.60844C3.4839 1.44818 3.2952 1.05028 3.3396 0.757385C3.41175 0.315278 3.72809 0.0113299 4.14988 0.000277219C4.58831 -0.0107755 4.93795 0.309752 4.99345 0.768438C4.99345 0.785017 4.99345 0.79607 4.999 0.812649C5.03785 1.07791 4.8769 1.4316 5.07669 1.59739C5.30424 1.77976 5.66498 1.65818 5.96467 1.65818C7.71841 1.6637 9.47215 1.65265 11.2203 1.66923C11.5922 1.67476 11.7087 1.5587 11.6699 1.20502C11.6477 1.02265 11.6643 0.829228 11.7032 0.646859C11.7864 0.248962 12.1305 -0.00524912 12.5134 0.000277219C12.913 0.00580355 13.2516 0.304226 13.3237 0.707648C13.3293 0.751859 13.3348 0.79607 13.3348 0.834754C13.3959 1.64713 13.3959 1.64713 14.2394 1.65818C15.6824 1.67476 16.6425 2.60871 16.6592 4.04003C16.6703 4.86345 16.6647 5.68688 16.6592 6.50477C16.6536 7.06293 16.4205 7.38899 15.9876 7.47741C15.5714 7.56583 15.2384 7.37241 15.0331 6.86399C14.9387 6.63188 14.7889 6.65951 14.6168 6.65951C13.2849 6.65951 11.9529 6.65951 10.621 6.65951C7.7961 6.65951 4.97125 6.66504 2.14639 6.65399C1.77455 6.65399 1.64136 6.73688 1.65801 7.12925C1.69131 8.1461 1.66911 9.15742 1.66911 10.1632Z" fill="url(#paint0_linear_206_8615)"/>
<path d="M14.5945 9.16838C17.5747 9.16838 20 11.6 20 14.5787C20 17.5629 17.5747 19.9945 14.5945 20C11.5976 20.0055 9.13901 17.5463 9.15566 14.5621C9.17786 11.5779 11.6087 9.16838 14.5945 9.16838ZM17.2861 13.081C17.2695 12.766 17.1085 12.4897 16.7589 12.3571C16.3926 12.2189 16.0707 12.3073 15.8154 12.5947C15.3382 13.1363 14.872 13.6834 14.3947 14.225C14.1782 14.4737 14.0062 14.8937 13.7232 14.9213C13.4013 14.9489 13.2181 14.5123 12.9684 14.2858C12.5355 13.8934 12.0471 13.8602 11.6975 14.2139C11.3645 14.5621 11.3867 15.0429 11.7696 15.4408C12.2136 15.8939 12.6576 16.3471 13.1182 16.7837C13.5511 17.2037 14.0284 17.176 14.4335 16.7174C15.2993 15.7337 16.154 14.7389 17.0197 13.7497C17.1751 13.5729 17.2861 13.3739 17.2861 13.081Z" fill="url(#paint1_linear_206_8615)"/>
<defs>
<linearGradient id="paint0_linear_206_8615" x1="10" y1="0" x2="10" y2="20" gradientUnits="userSpaceOnUse">
<stop stop-color="#FF4E71"/>
<stop offset="1" stop-color="#FB0230"/>
</linearGradient>
<linearGradient id="paint1_linear_206_8615" x1="10" y1="0" x2="10" y2="20" gradientUnits="userSpaceOnUse">
<stop stop-color="#FF4E71"/>
<stop offset="1" stop-color="#FB0230"/>
</linearGradient>
</defs>
</svg>
