<svg width="58" height="59" viewBox="0 0 58 59" fill="none" xmlns="http://www.w3.org/2000/svg">
<g filter="url(#filter0_di_307_6143)">
<rect width="58" height="58" rx="29" fill="#F5F5F5"/>
</g>
<path d="M42.9848 25.3451C42.9798 23.2017 42.2419 21.3531 40.7511 19.8303C39.5874 18.6448 38.4301 17.4529 37.2665 16.2675C35.7756 14.7498 33.9777 13.9974 31.8741 14C29.1589 14.0026 26.4438 13.9987 23.7274 14.0013C19.2245 14.0039 16.0191 17.2823 16.009 21.8987C16.004 24.7841 16.009 27.6707 16.009 30.5561C16.009 33.5282 15.985 33.3976 16.0153 36.3696C16.0608 40.6977 19.3243 43.9864 23.5518 43.9942C27.5089 44.0019 31.4673 44.0019 35.4244 43.9942C39.6885 43.9864 42.9532 40.6977 42.9823 36.3282C43.0126 31.633 42.9975 30.0403 42.9848 25.3451ZM20.047 31.3331C20.0697 28.6429 20.0495 24.5307 20.0609 21.8392C20.0697 19.5691 21.481 18.1445 23.7059 18.1419C25.8929 18.1394 28.0812 18.1562 30.2683 18.129C30.7458 18.1239 30.8734 18.2622 30.8646 18.7418C30.8368 20.3125 30.8469 21.8844 30.857 23.4564C30.8684 25.2999 31.9714 26.4103 33.7857 26.4142C35.322 26.4181 36.8571 26.4323 38.3922 26.4039C38.8458 26.3961 38.962 26.5474 38.9494 26.9908C38.9203 27.9797 38.9127 30.3933 38.9519 31.3822C38.9721 31.8864 38.7978 31.9833 38.3417 31.9794C35.3966 31.9601 32.4515 31.9691 29.5064 31.9691C26.5613 31.9691 23.6162 31.9562 20.6711 31.982C20.1645 31.9859 20.0419 31.8334 20.047 31.3331ZM23.4166 34.9295H21.3218V35.9365H23.0894V36.7884H21.3218V37.9286H23.4103V38.8142H20.1973V34.0414H23.4166V34.9295ZM26.392 38.8142L25.6074 37.1982L24.8228 38.8142H23.529L24.8645 36.4084L23.5644 34.0414H24.8455L25.6074 35.6276L26.3705 34.0414H27.6542L26.3503 36.4084L27.6896 38.8142H26.392ZM29.1741 37.6507C29.2992 37.8692 29.5152 37.9778 29.8197 37.9778C30.0787 37.9778 30.2758 37.9157 30.4123 37.7916C30.55 37.6662 30.622 37.4684 30.6309 37.1982H31.749C31.7338 37.5305 31.6467 37.8239 31.4862 38.0786C31.3258 38.3333 31.1009 38.5298 30.8115 38.6694C30.5222 38.809 30.1912 38.8788 29.8197 38.8788C29.207 38.8788 28.7243 38.6746 28.3718 38.266C28.0193 37.8575 27.8437 37.281 27.8437 36.5364V36.2998C27.8437 35.8318 27.9233 35.4233 28.0825 35.073C28.2417 34.7214 28.4704 34.4512 28.7698 34.2598C29.068 34.0685 29.4142 33.9729 29.8071 33.9729C30.3731 33.9729 30.828 34.1254 31.1716 34.4305C31.5153 34.7343 31.7111 35.1544 31.7579 35.6896H30.6372C30.6283 35.4 30.5563 35.1906 30.4224 35.0639C30.2872 34.9372 30.0825 34.8739 29.8071 34.8739C29.5279 34.8739 29.3232 34.9812 29.1918 35.1958C29.0617 35.4091 28.9934 35.7517 28.9871 36.2209V36.5583C28.9871 37.0677 29.0503 37.4322 29.1741 37.6507ZM35.5002 34.9295H33.4041V35.9365H35.1729V36.7884H33.4041V37.9286H35.4939V38.8142H32.2809V34.0414H35.5002V34.9295ZM39.0328 38.8142H35.9512V34.0414H37.0757V37.9286H39.0328V38.8142Z" fill="url(#paint0_linear_307_6143)"/>
<defs>
<filter id="filter0_di_307_6143" x="0" y="0" width="58" height="62" filterUnits="userSpaceOnUse" color-interpolation-filters="sRGB">
<feFlood flood-opacity="0" result="BackgroundImageFix"/>
<feColorMatrix in="SourceAlpha" type="matrix" values="0 0 0 0 0 0 0 0 0 0 0 0 0 0 0 0 0 0 127 0" result="hardAlpha"/>
<feOffset dy="1"/>
<feComposite in2="hardAlpha" operator="out"/>
<feColorMatrix type="matrix" values="0 0 0 0 0 0 0 0 0 0 0 0 0 0 0 0 0 0 0.25 0"/>
<feBlend mode="normal" in2="BackgroundImageFix" result="effect1_dropShadow_307_6143"/>
<feBlend mode="normal" in="SourceGraphic" in2="effect1_dropShadow_307_6143" result="shape"/>
<feColorMatrix in="SourceAlpha" type="matrix" values="0 0 0 0 0 0 0 0 0 0 0 0 0 0 0 0 0 0 127 0" result="hardAlpha"/>
<feOffset dy="4"/>
<feGaussianBlur stdDeviation="2"/>
<feComposite in2="hardAlpha" operator="arithmetic" k2="-1" k3="1"/>
<feColorMatrix type="matrix" values="0 0 0 0 0 0 0 0 0 0 0 0 0 0 0 0 0 0 0.15 0"/>
<feBlend mode="normal" in2="shape" result="effect2_innerShadow_307_6143"/>
</filter>
<linearGradient id="paint0_linear_307_6143" x1="29.5" y1="14" x2="29.5" y2="44" gradientUnits="userSpaceOnUse">
<stop stop-color="#FF4E71"/>
<stop offset="1" stop-color="#FB0230"/>
</linearGradient>
</defs>
</svg>
