<svg width="58" height="59" viewBox="0 0 58 59" fill="none" xmlns="http://www.w3.org/2000/svg">
<g filter="url(#filter0_di_307_6140)">
<rect width="58" height="58" rx="29" fill="#F5F5F5"/>
</g>
<path d="M34.2355 21.616C34.2355 23.5723 34.2693 25.5285 34.2177 27.4848C34.1999 28.1808 34.4278 28.3392 35.0704 28.3001C35.9266 28.2466 36.7881 28.2912 37.6479 28.2858C38.3421 28.2823 38.8547 28.5617 39.1164 29.2186C39.3674 29.8505 39.1484 30.3791 38.6963 30.8313C35.9105 33.6206 33.1301 36.4153 30.3301 39.1886C29.6127 39.8988 28.8687 39.881 28.1389 39.1565C25.362 36.401 22.6011 33.6277 19.8349 30.8615C19.3579 30.3845 19.1158 29.8433 19.4006 29.1776C19.6801 28.5243 20.2088 28.2751 20.8959 28.284C21.6969 28.2929 22.4997 28.236 23.2954 28.3001C24.0465 28.3606 24.2993 28.1737 24.2868 27.3513C24.2352 23.5883 24.2637 19.8235 24.2637 16.0587C24.2637 14.4727 24.6838 14.0454 26.2467 14.0454C28.3222 14.0437 30.396 14.0401 32.4715 14.0472C33.7371 14.0508 34.232 14.5528 34.2355 15.8362C34.2391 17.7622 34.2355 19.69 34.2355 21.616Z" fill="url(#paint0_linear_307_6140)"/>
<path d="M29.1571 43.9555C25.0647 43.9555 20.9724 43.9573 16.8801 43.9538C15.4827 43.952 15.011 43.4821 15.0057 42.0936C15.0021 40.8778 14.9932 39.6621 15.0093 38.4463C15.0217 37.4637 15.5717 36.8478 16.4101 36.8336C17.2468 36.8193 17.8217 37.4441 17.8591 38.4036C17.8627 38.4926 17.8538 38.5816 17.8609 38.6706C17.9214 39.4592 17.5102 40.5343 18.0353 40.9562C18.5284 41.3531 19.5608 41.0968 20.3565 41.0986C26.7914 41.1039 33.2262 41.0826 39.6611 41.1235C40.5102 41.1288 40.7345 40.8654 40.6508 40.0875C40.5938 39.5606 40.633 39.0213 40.6419 38.4872C40.6597 37.453 41.2222 36.8176 42.0926 36.8336C42.9257 36.8496 43.4793 37.4726 43.49 38.4516C43.5042 39.7262 43.5024 41.0024 43.49 42.277C43.4793 43.4322 42.9595 43.9502 41.7918 43.952C37.5784 43.9609 33.3669 43.9555 29.1571 43.9555Z" fill="url(#paint1_linear_307_6140)"/>
<defs>
<filter id="filter0_di_307_6140" x="0" y="0" width="58" height="62" filterUnits="userSpaceOnUse" color-interpolation-filters="sRGB">
<feFlood flood-opacity="0" result="BackgroundImageFix"/>
<feColorMatrix in="SourceAlpha" type="matrix" values="0 0 0 0 0 0 0 0 0 0 0 0 0 0 0 0 0 0 127 0" result="hardAlpha"/>
<feOffset dy="1"/>
<feComposite in2="hardAlpha" operator="out"/>
<feColorMatrix type="matrix" values="0 0 0 0 0 0 0 0 0 0 0 0 0 0 0 0 0 0 0.25 0"/>
<feBlend mode="normal" in2="BackgroundImageFix" result="effect1_dropShadow_307_6140"/>
<feBlend mode="normal" in="SourceGraphic" in2="effect1_dropShadow_307_6140" result="shape"/>
<feColorMatrix in="SourceAlpha" type="matrix" values="0 0 0 0 0 0 0 0 0 0 0 0 0 0 0 0 0 0 127 0" result="hardAlpha"/>
<feOffset dy="4"/>
<feGaussianBlur stdDeviation="2"/>
<feComposite in2="hardAlpha" operator="arithmetic" k2="-1" k3="1"/>
<feColorMatrix type="matrix" values="0 0 0 0 0 0 0 0 0 0 0 0 0 0 0 0 0 0 0.15 0"/>
<feBlend mode="normal" in2="shape" result="effect2_innerShadow_307_6140"/>
</filter>
<linearGradient id="paint0_linear_307_6140" x1="29.25" y1="14.043" x2="29.25" y2="43.9571" gradientUnits="userSpaceOnUse">
<stop stop-color="#FF4E71"/>
<stop offset="1" stop-color="#FB0230"/>
</linearGradient>
<linearGradient id="paint1_linear_307_6140" x1="29.25" y1="14.043" x2="29.25" y2="43.9571" gradientUnits="userSpaceOnUse">
<stop stop-color="#FF4E71"/>
<stop offset="1" stop-color="#FB0230"/>
</linearGradient>
</defs>
</svg>
