<svg width="58" height="59" viewBox="0 0 58 59" fill="none" xmlns="http://www.w3.org/2000/svg">
<g filter="url(#filter0_di_307_6137)">
<rect width="58" height="58" rx="29" fill="#F5F5F5"/>
</g>
<path d="M29.5153 21.2466C33.748 21.2466 37.9719 21.2466 42.2046 21.2466C44.5745 21.2466 46 22.685 46 25.0707C46 28.9035 46 32.7363 46 36.5692C46 38.946 44.5658 40.3844 42.1871 40.3757C41.5924 40.3757 40.8228 40.63 40.4468 40.2704C40.0708 39.9108 40.3419 39.1302 40.3331 38.5338C40.3156 37.4112 40.3419 36.2973 40.3244 35.1746C40.2894 32.6223 38.278 30.57 35.7331 30.5612C31.5704 30.5436 27.399 30.5349 23.2363 30.5612C20.7264 30.5787 18.7062 32.6223 18.68 35.1395C18.6625 36.692 18.6538 38.2444 18.6888 39.788C18.6975 40.288 18.5488 40.4195 18.0766 40.3844C17.5431 40.3406 17.0009 40.3844 16.4675 40.3757C14.5435 40.3318 13.0219 38.8496 13.0131 36.9288C12.9956 32.8591 12.9956 28.7895 13.0131 24.7199C13.0219 22.7377 14.561 21.2554 16.5724 21.2466C20.8838 21.2379 25.2039 21.2466 29.5153 21.2466ZM20.7351 27.4388C20.7264 26.588 20.0093 25.8951 19.161 25.9127C18.3389 25.9302 17.6568 26.6231 17.6481 27.4476C17.6393 28.2983 18.3477 29.0088 19.1872 29.0088C20.0443 29 20.7439 28.2896 20.7351 27.4388Z" fill="url(#paint0_linear_307_6137)"/>
<path d="M29.4715 43.9978C27.4951 43.9978 25.5187 43.9978 23.5423 43.9978C22.3617 43.9978 21.767 43.3926 21.767 42.1998C21.767 39.9369 21.7583 37.6741 21.767 35.4112C21.767 34.2623 22.3704 33.6483 23.5073 33.6483C27.5039 33.6395 31.4917 33.6395 35.4882 33.6483C36.6251 33.6483 37.2285 34.2623 37.2285 35.4112C37.2373 37.6916 37.2373 39.9808 37.2285 42.2612C37.2285 43.3663 36.6164 43.989 35.5145 43.989C33.5031 44.0066 31.4917 43.9978 29.4715 43.9978Z" fill="url(#paint1_linear_307_6137)"/>
<path d="M29.4802 19.1857C26.2182 19.1857 22.9562 19.1857 19.6943 19.1857C18.846 19.1857 18.6798 19.0191 18.6798 18.1683C18.6798 17.6947 18.6624 17.2211 18.6886 16.7474C18.7498 15.2564 19.9304 14.0285 21.4258 14.0197C26.8129 13.9934 32.1999 13.9934 37.587 14.0197C39.1086 14.0285 40.2892 15.2564 40.3329 16.7913C40.3504 17.2825 40.3417 17.7824 40.3329 18.2736C40.3242 18.984 40.1231 19.1769 39.3972 19.1769C36.0915 19.1857 32.7858 19.1857 29.4802 19.1857Z" fill="url(#paint2_linear_307_6137)"/>
<defs>
<filter id="filter0_di_307_6137" x="0" y="0" width="58" height="62" filterUnits="userSpaceOnUse" color-interpolation-filters="sRGB">
<feFlood flood-opacity="0" result="BackgroundImageFix"/>
<feColorMatrix in="SourceAlpha" type="matrix" values="0 0 0 0 0 0 0 0 0 0 0 0 0 0 0 0 0 0 127 0" result="hardAlpha"/>
<feOffset dy="1"/>
<feComposite in2="hardAlpha" operator="out"/>
<feColorMatrix type="matrix" values="0 0 0 0 0 0 0 0 0 0 0 0 0 0 0 0 0 0 0.25 0"/>
<feBlend mode="normal" in2="BackgroundImageFix" result="effect1_dropShadow_307_6137"/>
<feBlend mode="normal" in="SourceGraphic" in2="effect1_dropShadow_307_6137" result="shape"/>
<feColorMatrix in="SourceAlpha" type="matrix" values="0 0 0 0 0 0 0 0 0 0 0 0 0 0 0 0 0 0 127 0" result="hardAlpha"/>
<feOffset dy="4"/>
<feGaussianBlur stdDeviation="2"/>
<feComposite in2="hardAlpha" operator="arithmetic" k2="-1" k3="1"/>
<feColorMatrix type="matrix" values="0 0 0 0 0 0 0 0 0 0 0 0 0 0 0 0 0 0 0.15 0"/>
<feBlend mode="normal" in2="shape" result="effect2_innerShadow_307_6137"/>
</filter>
<linearGradient id="paint0_linear_307_6137" x1="29.5" y1="14" x2="29.5" y2="44" gradientUnits="userSpaceOnUse">
<stop stop-color="#FF4E71"/>
<stop offset="1" stop-color="#FB0230"/>
</linearGradient>
<linearGradient id="paint1_linear_307_6137" x1="29.5" y1="14" x2="29.5" y2="44" gradientUnits="userSpaceOnUse">
<stop stop-color="#FF4E71"/>
<stop offset="1" stop-color="#FB0230"/>
</linearGradient>
<linearGradient id="paint2_linear_307_6137" x1="29.5" y1="14" x2="29.5" y2="44" gradientUnits="userSpaceOnUse">
<stop stop-color="#FF4E71"/>
<stop offset="1" stop-color="#FB0230"/>
</linearGradient>
</defs>
</svg>
