<svg width="45" height="44" viewBox="0 0 45 44" fill="none" xmlns="http://www.w3.org/2000/svg">
<path d="M22.5318 9.99416C15.6134 9.98354 10.032 15.5119 10.0001 22.4091C9.9683 29.3594 15.5391 34.9939 22.4576 35.0045C29.3335 35.0151 34.968 29.4337 34.9999 22.5789C35.0317 15.6286 29.4609 10.0154 22.5318 9.99416ZM23.5823 29.7838C23.1473 30.1765 22.5849 30.3781 21.8952 30.3781C21.1948 30.3781 20.6218 30.1871 20.1974 29.7945C19.773 29.4125 19.5607 28.9137 19.5607 28.3195C19.5607 27.7253 19.773 27.2266 20.1974 26.834C20.6218 26.4413 21.1948 26.2397 21.8952 26.2397C22.5849 26.2397 23.1473 26.4413 23.5823 26.834C24.0068 27.2266 24.219 27.7253 24.219 28.3195C24.219 28.9031 24.0068 29.3912 23.5823 29.7838ZM26.9779 22.1226C26.1608 22.8442 25.0785 23.2156 23.7309 23.2474L23.6248 24.733H20.1019L19.9852 20.6795H21.4495C22.3727 20.6795 23.0836 20.5734 23.5717 20.3612C24.0598 20.1596 24.3039 19.7776 24.3039 19.2364C24.3039 18.865 24.2084 18.5785 24.0068 18.3663C23.8052 18.1541 23.5399 18.048 23.2003 18.048C22.8183 18.048 22.5318 18.1647 22.3408 18.3875C22.1392 18.6104 22.0437 18.9181 22.0437 19.3001H18.2768C18.245 18.4724 18.4147 17.7084 18.7861 17.0293C19.1681 16.3396 19.7305 15.7984 20.4945 15.3952C21.2479 14.992 22.1923 14.7904 23.3064 14.7904C24.7814 14.7904 25.9698 15.1724 26.8718 15.9364C27.7631 16.7004 28.2088 17.7827 28.2088 19.194C28.2088 20.4249 27.8055 21.4117 26.9779 22.1226Z" fill="#FF9500"/>
</svg>
