<svg width="18" height="18" viewBox="0 0 18 18" fill="none" xmlns="http://www.w3.org/2000/svg">
<path d="M18 9C18 9.48343 17.8046 9.92057 17.4857 10.2343C17.1669 10.5531 16.7297 10.7486 16.2514 10.7486H10.7486V16.2514C10.7486 17.2131 9.96171 18 9 18C8.51657 18 8.07943 17.8046 7.76572 17.4857C7.44686 17.1669 7.25143 16.7297 7.25143 16.2514V10.7486H1.74857C0.786857 10.7486 0 9.96171 0 9C0 8.51657 0.195429 8.07943 0.514286 7.76572C0.833143 7.44686 1.27029 7.25143 1.74857 7.25143H7.25143V1.74857C7.25143 0.786857 8.03829 0 9 0C9.48343 0 9.92057 0.195429 10.2343 0.514286C10.5531 0.833143 10.7486 1.27029 10.7486 1.74857V7.25143H16.2514C17.2131 7.25143 18 8.03829 18 9Z" fill="#00991A"/>
</svg>
