<svg width="40" height="40" viewBox="0 0 40 40" fill="none" xmlns="http://www.w3.org/2000/svg">
<path d="M29 20C29 20.4834 28.8046 20.9206 28.4857 21.2343C28.1669 21.5531 27.7297 21.7486 27.2514 21.7486H21.7486V27.2514C21.7486 28.2131 20.9617 29 20 29C19.5166 29 19.0794 28.8046 18.7657 28.4857C18.4469 28.1669 18.2514 27.7297 18.2514 27.2514V21.7486H12.7486C11.7869 21.7486 11 20.9617 11 20C11 19.5166 11.1954 19.0794 11.5143 18.7657C11.8331 18.4469 12.2703 18.2514 12.7486 18.2514H18.2514V12.7486C18.2514 11.7869 19.0383 11 20 11C20.4834 11 20.9206 11.1954 21.2343 11.5143C21.5531 11.8331 21.7486 12.2703 21.7486 12.7486V18.2514H27.2514C28.2131 18.2514 29 19.0383 29 20Z" fill="#00991A"/>
</svg>
