<svg width="28" height="28" viewBox="0 0 28 28" fill="none" xmlns="http://www.w3.org/2000/svg">
<path d="M14 0C6.26706 0 0 6.26706 0 14C0 21.7329 6.26706 28 14 28C21.7288 28 28 21.7329 28 14C28 6.26706 21.7288 0 14 0ZM19.5465 18.8424C19.1635 19.5547 18.2865 19.95 17.4794 19.7729C17.1253 19.6988 16.8329 19.5094 16.5776 19.25C15.8324 18.4923 15.0706 17.7553 14.3335 16.9894C14.0782 16.7218 13.9135 16.7341 13.6624 16.9935C12.9376 17.7512 12.1841 18.4841 11.4471 19.2294C10.8747 19.8059 10.1253 19.9747 9.39647 19.6782C8.64294 19.3735 8.16941 18.6776 8.17353 17.8788C8.16117 17.3106 8.40823 16.8659 8.80765 16.4747C9.56529 15.7294 10.3024 14.9676 11.06 14.2182C11.2412 14.0412 11.2535 13.9012 11.0682 13.7118C10.3229 12.9706 9.61882 12.1965 8.82823 11.5006C8.02529 10.7882 7.95941 9.59823 8.69647 8.79529C9.40059 8.03353 10.7059 7.98412 11.4347 8.70882C12.1965 9.47059 12.95 10.2324 13.6912 11.0106C13.9053 11.2329 14.0494 11.2494 14.2718 11.0188C14.9965 10.2653 15.75 9.53235 16.4871 8.78294C17.1253 8.13235 17.9694 7.99647 18.7765 8.42059C19.53 8.82 19.9212 9.65176 19.7647 10.4959C19.6947 10.8788 19.4724 11.1588 19.2047 11.4224C18.4553 12.1553 17.7141 12.9006 16.9606 13.6294C16.7341 13.8476 16.6929 14 16.9441 14.2429C17.7265 15.0006 18.4882 15.7747 19.2541 16.5488C19.8965 17.1953 19.9994 18.0065 19.5465 18.8424Z" fill="#A70000"/>
</svg>
