<svg width="30" height="30" viewBox="0 0 30 30" fill="none" xmlns="http://www.w3.org/2000/svg">
<path d="M15 0C6.71912 0 0 6.71471 0 15C0 23.2809 6.71912 30 15 30C23.2853 30 30 23.2809 30 15C30 6.71471 23.2853 0 15 0ZM22.7426 9.78088C22.6721 9.93529 22.5706 10.0809 22.4647 10.2176C19.6588 13.8353 16.8485 17.4529 14.0338 21.0706C13.7647 21.4235 13.4779 21.7588 13.0676 21.9618C12.9309 22.0279 12.7853 22.0721 12.6662 22.0588C12.3309 22.0676 12.0926 21.9309 11.8676 21.75C11.5721 21.5118 11.3515 21.2074 11.1265 20.9029C9.85588 19.1471 8.74412 17.2853 7.46471 15.5338C7.24412 15.2294 7.11618 14.8853 7.13824 14.5059C7.18235 13.6809 7.98529 13.1515 8.78824 13.4074C9.08382 13.5044 9.32647 13.6809 9.55588 13.875C10.4735 14.6426 11.4 15.4059 12.3088 16.1824C12.4985 16.3456 12.6 16.3368 12.7721 16.1647C15.2471 13.6853 17.7309 11.2103 20.2103 8.73529C20.4485 8.49706 20.6912 8.27206 20.9912 8.11324C21.5206 7.83529 22.0544 7.88382 22.4338 8.24118C22.8618 8.64706 22.9897 9.26471 22.7426 9.78088Z" fill="#118401"/>
</svg>
