<svg width="58" height="59" viewBox="0 0 58 59" fill="none" xmlns="http://www.w3.org/2000/svg">
<g filter="url(#filter0_di_206_8530)">
<rect width="58" height="58" rx="29" fill="#414141"/>
</g>
<path d="M20 28.29C20.1344 31.1841 21.6059 33.8455 24.6432 35.4562C27.6879 37.0741 30.7288 36.8487 33.6354 34.9908C33.9079 34.8163 34.0278 34.8526 34.2349 35.0599C35.4193 36.2488 36.6146 37.4304 37.8208 38.6012C38.562 39.3211 39.7028 39.0229 39.9572 38.0558C40.088 37.5541 39.9099 37.1432 39.5502 36.7833C38.3695 35.6089 37.1996 34.42 36.0079 33.2529C35.7972 33.0456 35.8008 32.9147 35.9606 32.6784C39.6011 27.3519 36.3712 19.9857 30.0058 19.0877C24.705 18.3423 19.9891 22.429 20 28.29ZM22.4997 27.7519C22.4997 24.3124 25.2899 21.5128 28.7233 21.5055C32.1749 21.4982 34.9906 24.3051 34.9869 27.7555C34.9869 31.1914 32.1894 33.9946 28.7597 34.0018C25.3045 34.0091 22.4997 31.2059 22.4997 27.7519Z" fill="white"/>
<defs>
<filter id="filter0_di_206_8530" x="0" y="0" width="58" height="62" filterUnits="userSpaceOnUse" color-interpolation-filters="sRGB">
<feFlood flood-opacity="0" result="BackgroundImageFix"/>
<feColorMatrix in="SourceAlpha" type="matrix" values="0 0 0 0 0 0 0 0 0 0 0 0 0 0 0 0 0 0 127 0" result="hardAlpha"/>
<feOffset dy="1"/>
<feComposite in2="hardAlpha" operator="out"/>
<feColorMatrix type="matrix" values="0 0 0 0 0 0 0 0 0 0 0 0 0 0 0 0 0 0 0.25 0"/>
<feBlend mode="normal" in2="BackgroundImageFix" result="effect1_dropShadow_206_8530"/>
<feBlend mode="normal" in="SourceGraphic" in2="effect1_dropShadow_206_8530" result="shape"/>
<feColorMatrix in="SourceAlpha" type="matrix" values="0 0 0 0 0 0 0 0 0 0 0 0 0 0 0 0 0 0 127 0" result="hardAlpha"/>
<feOffset dy="4"/>
<feGaussianBlur stdDeviation="2"/>
<feComposite in2="hardAlpha" operator="arithmetic" k2="-1" k3="1"/>
<feColorMatrix type="matrix" values="0 0 0 0 0 0 0 0 0 0 0 0 0 0 0 0 0 0 0.15 0"/>
<feBlend mode="normal" in2="shape" result="effect2_innerShadow_206_8530"/>
</filter>
</defs>
</svg>
