<svg width="20" height="20" viewBox="0 0 20 20" fill="none" xmlns="http://www.w3.org/2000/svg">
<path d="M15.6795 11.5908C15.6795 14.4129 13.3616 16.7926 10.4176 16.987C7.4455 17.1814 4.82511 15.1771 4.396 12.3785C3.90358 9.17431 6.49231 6.22821 9.84077 6.18464C10.4282 6.17794 10.604 6.30195 10.7623 6.83486C11.1949 8.29618 12.637 9.13744 14.2057 8.83914C14.6911 8.7453 14.9303 8.8559 15.1413 9.28491C15.5001 10.0156 15.6795 10.7864 15.6795 11.5908Z" fill="#00991A"/>
<path d="M10.0026 3.0006C12.1938 3.03411 14.1284 3.76477 15.8518 5.01493C17.9517 6.53993 19.4254 8.47383 19.9706 10.9809C20.0761 11.4635 19.8932 11.8087 19.4957 11.8925C19.0983 11.9763 18.7782 11.7316 18.6692 11.2557C17.8567 7.74317 14.5364 4.80378 10.8045 4.3312C8.97551 4.09994 7.29776 4.57922 5.77126 5.51098C3.49909 6.90191 1.89872 8.77883 1.32188 11.3562C1.23746 11.7383 0.885735 11.9662 0.530488 11.8925C0.15062 11.8154 -0.0639348 11.4803 0.016963 11.068C0.337037 9.45586 1.08974 8.04147 2.19417 6.79801C3.88951 4.89092 5.98581 3.59719 8.59213 3.12796C9.05641 3.04417 9.52773 2.99389 10.0026 3.0006Z" fill="#00991A"/>
</svg>
