<svg width="20" height="20" viewBox="0 0 20 20" fill="none" xmlns="http://www.w3.org/2000/svg">
<path d="M10.308 0.0224355C11.5073 0.0570133 13.0376 -0.0775598 14.5585 0.073835C17.6546 0.381297 19.9215 2.84193 19.9682 5.96702C20.0084 8.66035 20.0131 11.3556 19.9673 14.0479C19.9102 17.3627 17.3489 19.914 14.0313 19.9673C11.3372 20.0103 8.64126 20.0131 5.9481 19.9664C2.61462 19.9084 0.0616825 17.3179 0.0242906 13.9853C-0.00562291 11.3228 -0.0084273 8.65942 0.0252254 5.99692C0.0663565 2.64848 2.65855 0.0785076 6.01074 0.0252391C7.33348 0.0046793 8.65808 0.0224355 10.308 0.0224355ZM6.10609 14.9647C6.4099 14.9834 6.65762 14.7479 6.90347 14.5021C9.43303 11.9714 11.9645 9.44256 14.494 6.9109C14.6146 6.79034 14.7464 6.66979 14.8277 6.524C15.0465 6.13523 15.0269 5.74179 14.7436 5.39134C14.4576 5.03715 14.0734 4.95865 13.649 5.08388C13.4022 5.15678 13.2358 5.35303 13.06 5.52965C10.552 8.03795 8.04299 10.5453 5.53586 13.0545C5.41527 13.1751 5.28907 13.2956 5.19466 13.4358C4.97591 13.7601 4.96657 14.1106 5.14885 14.4517C5.33207 14.7956 5.63214 14.9666 6.10609 14.9647ZM6.98854 8.98931C8.10468 8.99678 8.97965 8.13701 8.98713 7.02678C8.99461 5.91095 8.13366 5.03435 7.02406 5.02874C5.90697 5.02314 5.03294 5.88104 5.02546 6.9922C5.01611 8.10617 5.878 8.98276 6.98854 8.98931ZM12.9759 11.0088C11.8654 11.0144 11.0016 11.8882 11.0063 13.0022C11.011 14.1124 11.8869 14.9778 12.9993 14.9703C14.1108 14.9638 14.9717 14.0919 14.9689 12.977C14.9661 11.8677 14.0911 11.0032 12.9759 11.0088Z" fill="#F200FF"/>
</svg>
